<?xml version="1.0" ?><!DOCTYPE svg  PUBLIC '-//W3C//DTD SVG 1.1//EN'  'http://www.w3.org/Graphics/SVG/1.1/DTD/svg11.dtd'><svg enable-background="new 0 0 32 32" version="1.1" viewBox="0 0 32 32" xml:space="preserve" xmlns="http://www.w3.org/2000/svg" xmlns:xlink="http://www.w3.org/1999/xlink"><g id="Energy20"/><g id="Energy19"/><g id="Energy18"/><g id="Energy17"/><g id="Energy16"/><g id="Energy15"/><g id="Energy14"/><g id="Energy13"/><g id="Energy12"/><g id="Energy11"/><g id="Energy10"/><g id="Energy09"/><g id="Energy08"/><g id="Energy07"/><g id="Energy06"/><g id="Energy05"/><g id="Energy04"><g><path d="M13,5v4c0,0.55-0.45,1-1,1H6c-0.55,0-1-0.45-1-1V5c0-0.55,0.45-1,1-1h2V2c0-0.55,0.45-1,1-1s1,0.45,1,1v2    h2C12.55,4,13,4.45,13,5z" fill="#346EA1"/><path d="M27,5v4c0,0.55-0.45,1-1,1h-6c-0.55,0-1-0.45-1-1V5c0-0.55,0.45-1,1-1h2V2c0-0.55,0.45-1,1-1s1,0.45,1,1v2    h2C26.55,4,27,4.45,27,5z" fill="#346EA1"/></g><g><path d="M29,14v16c0,0.55-0.45,1-1,1H4c-0.55,0-1-0.45-1-1V14c0-0.55,0.45-1,1-1h24C28.55,13,29,13.45,29,14z" fill="#D34A4B"/></g><g><path d="M31,10v3c0,1.1-0.9,2-2,2H3c-1.1,0-2-0.9-2-2v-3c0-1.1,0.9-2,2-2h26C30.1,8,31,8.9,31,10z" fill="#FF982C"/></g></g><g id="Energy03"/><g id="Energy02"/><g id="Energy01"/></svg>