<?xml version="1.0" encoding="utf-8"?>
<svg width="512" height="512" viewBox="0 0 512 512" xmlns="http://www.w3.org/2000/svg"
     xmlns:xlink="http://www.w3.org/1999/xlink">
    <defs>
        <svg id="svg-1" xmlns="http://www.w3.org/2000/svg" viewBox="0 0 128 128" pointer-events="none" display="block">
            <path fill="#84FFFF" d="M0 0h128v128H0z"/>
            <path d="M100.4 53.6zm-.8-.3h-.1.1zm-70.5.3l-.3.1c.1 0 .2 0 .3-.1zm-.9.4l-.2.1s.1 0 .2-.1zm1.7-.7l-.3.1c.2 0 .3-.1.3-.1z"
                  fill="none"/>
            <path fill="#8D6E63" d="M39.3 109.5c-.1.1-.1.2-.1.2l.5-.6c-.1.1-.2.3-.4.4z"/>
            <path d="M42.086 83.882c4.324-2.609 3.84-10.373 3.84-12.184h34.8c0 1.811-.536 9.575 3.787 12.184l-21.187 22.237-21.24-22.237z"
                  fill="#ffd7a3"/>
            <path d="M76.86 91.626l7.653-7.744c-4.324-2.609-3.787-10.373-3.787-12.184h-34.8c2.497 6.727 19.011 18.267 30.933 19.928z"
                  fill="#fdc88e"/>
            <path d="M90.392 48.147c0 14.507-8.914 32.61-27.066 32.61-18.15 0-27.066-18.103-27.066-32.61 0-14.508 12.118-19.928 27.066-19.928 14.948 0 27.066 5.42 27.066 19.928z"
                  fill="#ffe1b2"/>
            <path d="M107.792 127.859c3.203 0 5.8-2.433 5.8-5.435v-17.472c0-7.972-6.629-16.481-14.73-18.91l-12.096-3.627c-6.507 4.663-15.807 11.023-23.44 11.023-7.633 0-16.932-6.36-23.44-11.023L27.792 86.04c-8.102 2.43-14.73 10.94-14.73 18.91v17.473c0 3.002 2.596 5.435 5.8 5.435h88.931z"
                  fill="#ff6953"/>
            <path d="M63.326 93.437l-8.066 7.56c-.84.787-2.232.684-2.931-.216L38.193 82.567l4.503-4.219a2.028 2.028 0 012.66-.066l17.97 15.155zM63.326 93.437l8.067 7.56c.84.787 2.231.684 2.93-.216L88.46 82.567l-4.503-4.219a2.028 2.028 0 00-2.66-.066l-17.97 15.155z"
                  fill="#e54f4f"/>
            <circle cx="210.57" cy="361.918" r="6.58" fill="#e54f4f" transform="matrix(.2938 0 0 .27531 1.46 11.914)"/>
            <circle cx="210.57" cy="329.016" r="6.58" fill="#e54f4f" transform="matrix(.2938 0 0 .27531 1.46 11.914)"/>
            <path d="M37.19 49.959c-2.898-.68-4.797.772-4.797 3.623 0 3.774 3.898 13.021 7.995 7.246 4.097-5.774-3.198-10.87-3.198-10.87zM89.023 49.959c3.164-.68 5.236.772 5.236 3.623 0 3.774-4.254 13.021-8.726 7.246-4.472-5.774 3.49-10.87 3.49-10.87z"
                  fill="#ffe1b2"/>
            <path d="M42.06 42.372c-.806 1.963-1.933 10.87-1.933 10.87l-3.867-1.811-1.087-12.003 6.887 2.944zM84.592 42.372c.806 1.963 1.934 10.87 1.934 10.87l3.866-1.811 1.088-12.003-6.888 2.944z"
                  fill="#7e5449"/>
            <path d="M83.472 17.657l-14.735-4.874a17.294 17.294 0 00-10.822 0L43.18 17.657c-4.802 1.589-8.008 5.803-8.008 10.526v16.34H91.48v-16.34c0-4.723-3.206-8.937-8.008-10.526z"
                  fill="#ffb422"/>
            <path d="M63.326 35.465c-11.745 0-29.322 4.056-29.322 9.059h58.644c0-5.003-17.577-9.059-29.322-9.059z"
                  fill="#e54f4f"/>
            <path d="M93.397 84.403l-25.97 43.456h13.296l23.445-39.232c-1.65-1.128-3.436-2.024-5.307-2.585l-5.464-1.64z"
                  fill="#393950"/>
            <ellipse cx="210.57" cy="46.062" rx="39.482" ry="26.321" fill="#ff6953"
                     transform="matrix(.2938 0 0 .27531 1.46 11.914)"/>
        </svg>

        <svg id="svg-2" viewBox="0 0 128 128" height="100%" width="100%" pointer-events="none" display="block">
            <path fill="#B9F6CA" d="M0 0h128v128H0z"/>
            <path fill="#FFCC80"
                  d="M70.1 122.5l.6-.1c6.1-.8 12-2.4 17.7-4.8 1.2-.5 2.4-1.1 3.2-2.1 1.3-1.7-.1-5.6-.5-7.7-.7-3.8-1.3-7.7-1.9-11.5-.7-4.5-1.5-9.1-1.6-13.7-.2-7.6.7-12.3 1.9-15.3h9l-2.6-10.4c-.2-2.4-.4-4.8-.7-6.8-.2-1.9-.6-3.6-1.2-5.3-14.9 2.2-24.5.9-30.7-1.8l-23.1 4.5-.7.1h-.7c-.4-.1-.9-.2-1.2-.4-.4 0-.9 0-1.4.1-4.1.6-6.9 4.7-6.3 9.1.3 2 1.2 3.8 2.6 5 .3.1 1.6.7 3.4 1.7.8.4 1.6 1 2.5 1.6 1.5 1.1 3.2 2.5 4.9 4.1 5.8 5.9 8.4 13.8 7.4 22-.6 4.7-2.2 9.4-4.4 13.6-.5 1-1 1.6-1.1 2.8-.1 1.1-.1 2.3.1 3.4.4 2.3 1.5 4.4 3 6.2 2.6 3.1 6.4 5 10.4 5.8 3.8.4 7.6.3 11.4-.1zm9.5-67.6c.9 0 1.6.7 1.6 1.6 0 .9-.7 1.6-1.6 1.6s-1.6-.7-1.6-1.6c-.1-.8.7-1.6 1.6-1.6zM128 97.7c-3.3 1.9-6.6 3.7-9.9 5.3-3.2 1.5-6.3 2.9-9.6 4.2-.9.4-2.1.5-2.9 1.1-1.1.8-1.9 2.5-2.3 3.7-.6 1.6-.6 3.4.3 4.8.8 1.2 2.1 2 3.5 2.6 5.9 2.9 12.2 5.1 18.6 6.5 1.4.3 2.3 1.8 2.4.1V97.9c-.1.1-.1-.1-.1-.2z"/>
            <path d="M38.9 47.4zm.7 0z" fill="none"/>
            <path fill="#444" d="M94.2 44.9c-.8-2.6-1.8-5-3.2-7.2l-7.2 1.4-20.4 4c6.3 2.7 15.9 4 30.8 1.8z"/>
            <path fill="#E65100"
                  d="M38.9 48.4h.7c.2 0 .5 0 .7-.1l23.1-4.5 20.4-4 23.3-4.5c1.9-.4 3.2-2 2.9-3.6-.3-1.6-2.1-2.6-4.1-2.3l-19.6 3.8-1.3-6.8C83 15.5 70 8.7 55.9 11.5c-14 2.7-23.7 13.9-21.6 24.9h.1l1.7 9v.7c.2.8.7 1.4 1.4 1.9.5.1 1 .3 1.4.4z"/>
            <circle fill="#444" cx="79.6" cy="56.5" r="2"/>
            <path fill="#689F38"
                  d="M128 128v-1.8L106.3 108l-.4.2-2.9 1.3c-3 1.3-6 2.6-9.2 3.8l-1.4.5c-9 3.3-16.5 4.1-22.8 3.6-16.4-1.3-23.8-11.9-23.8-11.9-2.2 4.2-5.2 8.7-9.2 13.5l-.3.4-1.7 2c-.9 1.1-2 2.6-3.4 4.5-.4.6-.9 1.3-1.4 2l98.2.1z"/>
            <path fill="#FFCC80" d="M36.3 119.3s.1-.2.2-.3c-.1.1-.2.2-.2.3z"/>
        </svg>
        <svg id="svg-3" xmlns="http://www.w3.org/2000/svg" viewBox="0 0 128 128" pointer-events="none" display="block">
            <path fill="#80D8FF" d="M0 0h128v128H0z"/>
            <path d="M59.5 25.7l-.3-.4c0 .2.1.3.3.4zm-1-1.2c-.2-.2-.3-.4-.4-.6.1.2.2.4.4.6zm.4.6l-.3-.4.3.4zm1.1 1.2l-.4-.4c.2.1.3.3.4.4zM46.3 56.2zm.5.4l.3.3-.3-.3zm-.2-.2l.2.2-.2-.2zm-.2-.2l.1.1-.1-.1zm14.3-29.3l-.4-.4c.1.1.2.3.4.4zm8.6 4.7l-1-.3c.3 0 .6.2 1 .3zm1.3.3c-.4-.1-.8-.2-1.1-.3.3.1.7.2 1.1.3zm-23.4 25l.4.4c-.2-.1-.3-.3-.4-.4zm27-24.2l-.9-.2c.3.1.6.2.9.2zm-12.8-5.2l-.5-.4c.1.1.3.2.5.4zm6.7 3.7c-.3-.1-.6-.2-.9-.4.2.1.6.2.9.4zm-5.9-3.1l-.6-.5.6.5zm3.7 2.2c-1.4-.6-2.6-1.3-3.6-2.1 1 .7 2.2 1.4 3.6 2.1zm1.1.4l-.9-.4c.2.2.5.3.9.4zm20.1 2.7h-.8.8zm-3.2 0h1.4-1.4zm-3.9 0l1.9.1c-.6 0-1.1 0-1.7-.1H80zm2 0h1.6H82zm6.1-.1c.3 0 .7 0 1-.1h-.2c-.2.1-.5.1-.8.1zm6.2-.6l-.7.1c1.2-.1 2.4-.3 3.6-.5l-2.2.3c-.2.1-.5.1-.7.1zm-3.4.4c-.3 0-.6 0-.8.1.9-.1 1.9-.2 2.9-.3l-.8.1c-.5 0-.9 0-1.3.1zM51.1 61.9c.2.3.4.6.5 1-.2-.4-.3-.7-.5-1zm-3.5-4.6c.8.8 1.8 1.9 2.8 3.5-1-1.5-2-2.7-2.8-3.5zm2.9 3.6l.6.9c-.3-.3-.5-.6-.6-.9zm1.2 2.1l.6 1.1c-.3-.4-.4-.8-.6-1.1zm26.5-29.8l-.9-.1c-.2 0-.3 0-.5-.1l-.9-.1h-.2c1.3.2 2.6.3 4 .4-.3 0-.6 0-.9-.1-.2.1-.4.1-.6 0zm-3.8-.4l1.1.2-.9-.1c-.1-.1-.2-.1-.2-.1zm-3.7-.8c.7.2 1.5.4 2.3.5l-.9-.2-1.4-.3zM52.2 64.1c.6 1.2 1.1 2.6 1.5 4.1-.4-1.5-.9-2.9-1.5-4.1z"
                  fill="none"/>
            <path fill="#2A56C6" d="M97.2 92.5v-.2.2z"/>
            <path fill="#00838F" d="M39.2 107.1l.3-.4-.3.3v.1z"/>
            <path d="M66.13 58.16h47.9c.062-.489.097-.99.097-1.498 0-5.987-4.433-10.84-9.906-10.84a9.167 9.167 0 00-4.256 1.05c-.238-5.757-4.574-10.343-9.893-10.343-5.469 0-9.905 4.853-9.905 10.841 0 .96.116 1.89.33 2.774a9.195 9.195 0 00-4.574-1.226c-4.972 0-9.086 4.014-9.793 9.242z"
                  fill="#dedde0"/>
            <path d="M84.795 78.591L58.676 94.186l3.454 34.025h51.997V78.59L84.795 96.104V78.591zm10.666 26.27h8v8.756h-8v-8.757zm-21.332 8.756h-8v-8.757h8v8.757z"
                  fill="#006c70"/>
            <path fill="#00d7df" d="M19.466 128.21H40.93v-14.593h-4.133v-8.757h4.133v-46.7H26.576z"/>
            <path fill="#00a1a7" d="M44.798 113.617H40.93v14.594H62.13l-3.454-34.025-3.657-36.025H40.931v46.7h3.867z"/>
            <path d="M71.554 39.064c0-6.332-4.689-11.464-10.473-11.464-1.612 0-3.137.4-4.501 1.11-.252-6.086-4.838-10.937-10.461-10.937-5.785 0-10.474 5.133-10.474 11.464 0 1.015.122 1.998.348 2.934a9.71 9.71 0 00-4.837-1.296c-5.258 0-9.61 4.244-10.357 9.772h50.652a12.53 12.53 0 00.103-1.583z"
                  fill="#acabb1"/>
            <path fill="#fff"
                  d="M66.13 104.86h8v8.757h-8zM95.461 104.86h8v8.757h-8zM40.931 113.617h3.867v-8.757h-8v8.757z"/>
            <path fill="#565659" d="M40.931 58.16H58.13v-8.756H23.465v8.757h3.111z"/>
        </svg>

        <svg id="svg-4" viewBox="0 0 128 128" height="100%" width="100%" pointer-events="none" display="block">
            <path fill="#84FFFF" d="M0 0h128v128H0z"/>
            <path fill="#444"
                  d="M28 54.2c1-.2 1.5.5 2.8.8 1.3.3 2.7.2 4-.2 2.2-.7 4.1-2.1 6.1-3.4 12.6-8.2 28.9-10.4 43.2-5.8 3 1 6 2.3 8 4.7.9 1.1 1.6 2.4 2.5 3.6s2.1 2.2 3.5 2.4c5.2.8 4.9-8.6 4.9-11.8 0-21.3-17.3-38.6-38.6-38.6S25.8 23.2 25.8 44.5c0 3.2.2 7 1.4 10 .3-.1.6-.2.8-.3z"/>
            <path fill="#8D6E63"
                  d="M44.3 103.5c0 .2-.1.4-.1.5-.5 3.9.3 7.9 2.3 11.3 2.1 3.7 5.4 6.6 9.2 8.3 3.1 1.4 6.5 2.1 10 2.1 5.3-.1 10.6-2 14.2-5.9 1.9-2.1 3.2-4.6 4.5-7.1.9-1.7 1.8-3.4 2.5-5.2.6-1.7.6-2.3-.5-3.6-2.2-2.6-4.1-5.7-4.9-9.1-.9-4.1.3-9.7 3.5-12.6 1.3-1.2 2.8-2.5 4.4-3.9l13.1-11c1.5-1.2 2.6-3 2.9-5.1.4-3.2-1.1-6.3-3.7-7.9-.5-.3-.9-.5-1.5-.7h-.1c-.2-.1-.5-.2-.7-.2h-.1c-.3-.1-.6-.1-.8-.2-1.4-.2-2.8 0-4 .5-.8-14-13.9-11-29.9-11-14.6 0-26.8-2.5-29.4 7.8-.2.9-.5 2-.8 3.1-1.2-.4-2.4-.6-3.8-.4-.3 0-.6.1-.9.2l-.3.1-.6.2-.3.1-.6.3-.2.1-.8.5c-2.3 1.7-3.6 4.5-3.2 7.6.3 2.1 1.3 3.8 2.8 5.1 0 0 10.9 9.3 11 9.3 4.6 3.9 8.2 10.7 8.6 16.7.1 1.8 0 3.7-.5 5.5-.1 1.5-1 3-1.3 4.6z"/>
            <path d="M100.4 53.6zm-.8-.3h-.1.1zm-70.5.3l-.3.1c.1 0 .2 0 .3-.1zm-.9.4l-.2.1s.1 0 .2-.1zm1.7-.7l-.3.1c.2 0 .3-.1.3-.1z"
                  fill="none"/>
            <path fill="#8D6E63" d="M39.3 109.5c-.1.1-.1.2-.1.2l.5-.6c-.1.1-.2.3-.4.4z"/>
            <path fill="#FFEB3B"
                  d="M62.8 128h6.8l-3.4-5zm-23.6-18.3c-.1.2-.2.4-.2.5-3.1.9-6 2.7-8.4 5.4l-.2.2s-.5.6-1.5 1.7c-.9 1.1-2.2 2.6-3.7 4.5-1.3 1.6-2.8 3.6-4.4 5.8h28.6l-10.2-18.1zm72.3 16.6c-1.3-2.2-2.3-3.9-3.1-5.1-.9-1.3-1.3-2-1.3-2l-.2-.3c-.6-.9-1.2-1.7-1.9-2.4-3.1-3.4-7-5.2-10.9-5.7l-.3.4L83.6 128h28.9c-.3-.6-.7-1.2-1-1.7z"/>
            <circle fill="#444" cx="79.5" cy="62.7" r="2"/>
            <circle fill="#444" cx="53.8" cy="62.8" r="2"/>
            <path fill="#F57F17"
                  d="M65.7 122.3l.5-.4L44 103.5l-4.3 5.6-.5.6L49.4 128h13.4l3.4-5zm0 0l.5.7 3.4 5h14l10.1-16.8.3-.4-6.4-6.2-.4.3-21 17z"/>
        </svg>
        <svg id="svg-5" viewBox="0 0 128 128" height="100%" width="100%" pointer-events="none" display="block">
            <path fill="#FFFF8D" d="M0 0h128v128H0z"/>
            <path fill="#C2C2C2" d="M51.7 31.4v-22s-19.6 2.5-15.8 29.9c11 0 14.8-4.3 15.8-7.9z"/>
            <path fill="#848484"
                  d="M94.1 39.8c.1-1 0-2-.1-3 0-1-.1-1.9-.2-2.9-.2-1.8-.4-3.5-.8-5.2-.6-2.9-1.5-5.8-2.9-8.4-1.1-2.2-2.6-4.2-4.3-6-1.6-1.6-3.3-2.9-5.3-3.9-1.8-1-3.8-1.7-5.8-2.2-2-.5-4-.8-6-.9-1.9-.1-3.8-.1-5.7 0-1.7.1-3.3.3-5 .6-1.3.2-2.5.5-3.8.8l-2.2.6-.4.1v20.8c0 1-.1 1.8.4 2.7.2.3.5.6.6.9.3.9.7 1.8 1.2 2.7 1.1 1.8 2.7 3.4 4.7 4.3 2.4 1.1 5.1 1.4 7.8 1.6 4.8.3 9.6.4 14.3.3 2.2 0 4.3-.3 6.4-.9 1.2-.3 2.4-.6 3.6-1 .6-.2 1.2-.4 1.8-.5.6-.2 1.2-.5 1.7-.5z"/>
            <path fill="#FFE0B2"
                  d="M66.8 116.8l17.9-8.7 3.1-8.2c-15.1-17 1.2-31.6 2.3-32.5h.1l13.2-11.1c1.5-1.2 2.5-3 2.8-5 .6-4.4-2.5-8.4-6.9-9.1-1.5-.2-3 0-4.3.6-.2-1-.5-1.9-.8-2.9-26.9 3.7-37.9-2.5-42.4-8.4-1.6 2.6-5.1 6.1-15.8 7.9-.2.9-.5 2-.8 3.1-1.2-.4-2.4-.6-3.8-.4-4.4.6-7.5 4.7-6.9 9.1.3 2 1.3 3.8 2.8 5l7.5 6.4c4.2 4.5 18.4 21.7 9 37l.7 3.7 4.7 4.6 17.6 8.9z"/>
            <path fill="#055524" d="M39.8 104.7zm54.3-.4l-.8 1.5-6.8 12.1V128H128v-2.3z"/>
            <path fill="#FFE0B2" d="M40.4 103.9c-.2.2-.3.4-.5.5 0 0-.1.1-.1.2v.1l.6-.8z"/>
            <circle fill="#444" cx="80" cy="51.7" r="2"/>
            <circle fill="#444" cx="54.3" cy="51.7" r="2"/>
            <path fill="#055524"
                  d="M39.8 104.7c-3.2.9-6.1 2.7-8.6 5.5l-.2.2s-.5.6-1.5 1.7c-.9 1.1-2.2 2.6-3.7 4.5-2.3 2.9-5.1 6.7-8.3 11.4h31v-7.8l-8.7-15.5z"/>
            <path fill="#848484" d="M65.3 67.3s2.7 9.8 14.5 9.8c0 0 3.9-18.5-14.5-18.5v8.7z"/>
            <path fill="#C2C2C2" d="M65.3 67.3v-8.7C46.9 58.6 50.8 77 50.8 77c11.8 0 14.5-9.7 14.5-9.7z"/>
            <path fill="#A7FFEB" d="M80.9 128h5.6v-10.1zm-21 0h13.8l-6.9-10zm-11.5 0h4.3l-4.3-7.8z"/>
            <path fill="#1DE9B6"
                  d="M66.8 118l-.5-.8.5-.4-22.9-17.3h-.1l-3.4 4.4-.6.8 8.6 15.5 4.3 7.8h7.2zm26.5-12.2l.8-1.5-6.4-4.4-20.9 16.9-.5.4.5.8 6.9 10h7.2l5.6-10.1z"/>
        </svg>
        <svg id="svg-6" viewBox="0 0 128 128" height="100%" width="100%" pointer-events="none" display="block">
            <path fill="#FF8A80" d="M0 0h128v128H0z"/>
            <path fill="#F2A600"
                  d="M30.3 43.7c3.1-.4 6.1 1 7.7 3.4 10.3-2 11-11.5 12.6-14.1 4.5 5.8 13.3 17.8 39.5 14.5 1.6-2.7 4.7-4.3 8-3.8.4 0 .7-1.9 1-1.8-.1-2.2-.3-4.4-.8-6.4v-.1C94.9 19.6 80.8 7.8 64 7.8c-15 0-27.8 9.4-32.8 22.6C29.8 34 29 38 28.9 42.1l.7 1.8.7-.2z"/>
            <path d="M89.1 102.8l.4-.3c-.1 0-.3.1-.4.3zm2.2-1.9l-.5.4c.2-.2.3-.3.5-.4zm-18 9.2c-.1 0-.2 0-.3.1.1-.1.2-.1.3-.1zm-2.4.4h-.2.2zm16.1-6.2l.3-.2-.3.2zm-9 4.5l.5-.2-.5.2zm4.9-2.1l.2-.1c-.1.1-.1.1-.2.1zm2-1.1l.5-.3-.5.3zm-4.6 2.3l.4-.2c-.1.1-.2.2-.4.2zm12.6-8.6zM30.3 41.7c-.3 0-.5.1-.7.1.2 0 .5 0 .7-.1zm35.9 69.2c-.6 0-1.2 0-1.9-.1.6 0 1.2.1 1.9.1z"
                  fill="none"/>
            <path fill="#F2A600"
                  d="M41.5 101.3l.8.7c-.3-.3-.5-.5-.8-.7zm1.4 1.1c.2.2.5.4.8.6-.3-.2-.6-.4-.8-.6zm1.3 1.1c.2.2.5.4.8.5-.2-.1-.5-.3-.8-.5zm54.1-68.1zM38.7 98.3c.4.4.8.8 1.1 1.3-.4-.4-.8-.8-1.1-1.3zm-7.6-67.9zm15.4 74.7l.5.3-.5-.3zm4.6 2.4l.3.1c-.1 0-.2 0-.3-.1zm-3.1-1.6l.5.3c-.2-.1-.4-.2-.5-.3zm13.6 4.6l-.9-.1.9.1zM88.9 67c-1.6 1.4-3.1 2.7-4.4 3.9-3.3 3.8-6.3 10.3-1 18.7 5.7-8.1 10.6-17.7 13.2-29.1L88.9 67zM41 100.8l-.8-.8.8.8zm8.5 6l.4.2c-.1-.1-.2-.2-.4-.2zm9.5 3.3h.1-.1zm-46.1 17.3c4.5-7.1 8.6-12.7 11.7-16.6 1.5-2 2.8-3.5 3.7-4.5 1-1.1 1.5-1.7 1.5-1.7l.2-.2c2.4-2.7 5.3-4.5 8.4-5.4.1-.2.2-.4.2-.5 0-.1 0-.2.1-.2 13.6-13.3 4.7-26.5-1.5-32.9l-4.4-3.8c-2.6 8.7-8.5 18.2-20.1 26.9-6.4 4.1-10.6 11.4-10.6 19.7 0 8.2 4.1 15.4 10.4 19.8l.4-.6z"/>
            <path fill="#FFE0B2"
                  d="M67.1 110.9h-2 2zM38.8 98.1c-.4.3 2.1 5.6 2.5 5.9 1.8 1.8 4.1 2.2 6.3 3.5 4.8 2.7 10.2 3.6 15.6 4.2 5.7.6 11.5-.5 16.8-2.6 2.5-1 4.8-2.3 7-3.8 1.2-.8 2.2-1.6 3.3-2.6.4-.3 2.4-3.6 2.7-3.3-4-3.3-8-6.9-10.4-11.6-2.2-4.2-2.6-9.1-.5-13.4 1.7-3.3 4.5-5.6 7.3-7.9 2.2-1.8 4.3-3.6 6.5-5.5l4.7-3.9c1-.8 2.1-1.6 2.8-2.7 1.5-2 1.9-4.6 1.2-7-1.4-4.8-7.1-7.2-11.5-4.9-1 .5-1.9 1.3-2.6 2.2l-.5.7-1.1.1c-.8.1-1.6.2-2.4.2-2.6.2-5.3.3-7.9.1-6.8-.3-13.5-2.1-19.1-6-3.6-2.4-6.3-5.6-8.9-9-.5.9-.8 1.9-1.1 2.8-.5 1.4-1 2.7-1.6 4-1.7 3.3-4.5 5.8-8.2 6.9-.5.2-1.1.3-1.7.4-.3-.5-.7-.9-1.1-1.3-.9-.6-2.1-1.3-3.3-1.6-2.5-.7-5.2-.2-7.2 1.4-3.9 3.1-4 9.2-.1 12.5l10.5 8.9c2.4 2 4.3 4.8 5.9 7.4 2.1 3.5 3.4 7.6 3.2 11.7-.3 5.6-3.3 10.4-7.1 14.2-.1.1 13.6-13.3 0 0z"/>
            <path fill="#80DEEA"
                  d="M93 99.4l-.2-.1-1.5 1.5-.5.4c-.4.4-.9.8-1.3 1.1l-.4.3c-.6.5-1.2.9-1.8 1.3l-.3.2c-.5.4-1.1.7-1.6 1l-.5.3-1.8 1-.2.1c-.7.4-1.4.7-2.1 1l-.4.2-1.8.7-.5.2c-.8.3-1.5.5-2.3.7l-2.4.6c-.1 0-.2 0-.3.1l-2.1.4h-.2c-1.5.2-3 .3-4.5.4h2-1.9c-.6 0-1.2 0-1.9-.1l-2.7-.3-.9-.1-1.6-.3h-.1c-2.7-.6-5.2-1.4-7.6-2.4l-.3-.1c-.4-.2-.8-.4-1.2-.5l-.4-.2c-.4-.2-.7-.4-1-.5l-.5-.3-1-.6-.5-.3c-.5-.3-1-.6-1.5-1-.3-.2-.5-.4-.8-.5l-.6-.5-.8-.6-.6-.5c-.3-.2-.5-.4-.8-.7l-.5-.5-.8-.8-.4-.4c-.4-.4-.8-.8-1.1-1.3-.1.2-.2.4-.2.5-3.1.9-6 2.7-8.4 5.4l-.2.2s-.5.6-1.5 1.7c-.9 1.1-2.2 2.6-3.7 4.5-3.1 3.9-7.2 9.5-11.7 16.6-.1.2-.2.4-.4.6H118c-2.7-5.4-5.1-9.8-7.1-13.1-1.3-2.2-2.3-3.9-3.1-5.1-.9-1.3-1.3-2-1.3-2l-.2-.3c-.6-.9-1.2-1.7-1.9-2.4-3.3-3.3-7.4-5.2-11.4-5.5z"/>
            <circle fill="#444" cx="78.9" cy="51.3" r="2"/>
            <circle fill="#444" cx="53.2" cy="51.3" r="2"/>
        </svg>
        <svg id="svg-7" viewBox="0 0 128 128" height="100%" width="100%" pointer-events="none" display="block">
            <path fill="#FFCC80" d="M41.6 123.8s0 .1-.1.1l.3-.4c-.1.2-.1.2-.2.3z"/>
            <path fill="#80D8FF" d="M0 0h128v128H0z"/>
            <path fill="#5D4037"
                  d="M29.3 123.1c4.1-6.9 7.8-12.4 10.5-16.2 1.4-1.9 2.5-3.4 3.3-4.4l1.7-2s0-.1.1-.1l.3-.3C49 95.4 51.9 91 54.1 87c9.5-17.8 6.1-29.3-.3-35.9-1.6-1.6-3.2-2.9-4.7-4-.9-.6-1.7-1.1-2.4-1.6-1.8-1-3.1-1.6-3.3-1.7-1.3-1.2-2.2-2.9-2.5-4.9-.5-4.3 2.2-6.2 6.1-6.8 1-.1 2-.1 2.9.2 9.6-1.8 11.9-8 13.3-10.6 4 5.7 13.9 9.8 38 6.1C97.1 14.3 84.5 5.4 71 7.4c-4.4.7-8.3 2.4-11.8 4.9l-.1.1c-1.1.8-2.1 1.6-3 2.6l-35 30C12.9 49.8 7.3 58.8 7.3 69.1c0 2.7.4 5.3 1.1 7.8.3 4.9-.1 11.7-2.9 18.6-.2.5-.5 1-.7 1.6-1.2 3.2-1.9 6.6-1.9 10.2 0 8.2 3.5 15.6 9.1 20.7h14.5c1-1.7 1.9-3.4 2.8-4.9zm20.5-90.8z"/>
            <path fill="#FFCC80"
                  d="M63.1 19.8c-1.4 2.6-5.7 8.8-15.3 10.6-.9-.3-1.9-.3-2.9-.2-3.9.6-6.7 4.5-6.1 8.8.3 2 1.2 3.7 2.5 4.9.2.1 1.5.6 3.3 1.7.7.4 1.6 1 2.4 1.6 1.5 1.1 3.1 2.4 4.7 4 6.4 6.6 11.8 18.1 2.3 35.9 0 0 7.3 15.5 23.2 16.9 6.1.5 13.3-5.6 22.1-8.8-.1-.7-.3-1.4-.5-2.1-.3-1.3-3.9-21.5-4.1-28.2-.2-7.4.7-11.9 1.9-14.8h8.8L103 39.7c-.2-2.4-.4-4.7-.7-6.7-.2-1.8-.6-3.5-1.1-5.2-24.2 3.7-34-2.3-38.1-8zm22.3 19.6c0-.9.7-1.6 1.6-1.6.9 0 1.6.7 1.6 1.6 0 .9-.7 1.6-1.6 1.6-.9 0-1.6-.7-1.6-1.6zm-35.6-7.1zm-4.9 68.1s0 .1-.1.1l.3-.4-.2.3z"/>
            <circle fill="#444" cx="86.9" cy="39.4" r="2"/>
            <path fill="#00BFA5"
                  d="M77.2 98.5C61.3 97.2 54.1 87 54.1 87c-2.2 4-5.1 8.4-8.9 13.1l-.3.4c-.5.7-1.1 1.3-1.7 2-.8 1-2 2.5-3.3 4.4-2.8 3.8-6.5 9.2-10.5 16.2-.9 1.6-1.8 3.2-2.8 4.9h80.8l-.3-1c-2.6-10.3-5.4-21.4-7.7-31.9-8.8 3.1-16.1 3.9-22.2 3.4z"/>
        </svg>
        <svg id="svg-8" viewBox="0 0 128 128" height="100%" width="100%" pointer-events="none" display="block">
            <path fill="#FFCC80" d="M41.6 123.8s.1-.2.2-.3c-.1.2-.1.2-.2.3z"/>
            <path fill="#B388FF" d="M0 0h128v128H0z"/>
            <path d="M64.1 34.5c-.1.1-.2.2-.3.2.1-.1.2-.2.3-.2zm.9-.7c-.1.1-.2.1-.2.2l.2-.2zm-1.9 1.3c-.1.1-.2.2-.4.2.2 0 .3-.1.4-.2zm-5.4 2.6l-.5.2c.2-.1.4-.2.5-.2zm2.8-1.1l-.2.1s.1-.1.2-.1zm-1.3.5l-.4.2c.1 0 .2-.1.4-.2zm8.8-6.3l-.2.3c.1-.1.2-.2.2-.3zm-1.9 2.1l-.3.2.3-.2zm1.4-1.4l-.3.3c.1-.2.2-.3.3-.3zm-.7.6l-.3.3c.2-.1.3-.2.3-.3zM62 35.8l-.3.2.3-.2zm5 47l-.3 1.6.3-1.6zM56.2 38.1l-.5.1c.1 0 .3 0 .5-.1zm10.4 46.5c-.1.5-.2 1.1-.4 1.6.2-.5.3-1 .4-1.6zm.6-3.6l-.2 1.6c.1-.5.1-1 .2-1.6zm-5.6-20.8c.1.1.2.3.4.4l-.4-.4zm7.5-30.9l-.6.9c.5-.7.9-1.3 1.2-1.8-.1.2-.3.5-.5.7 0 .1 0 .2-.1.2zM67.2 81c1-10.6-2.4-17.3-5.2-20.4 2.7 3.1 6.2 9.8 5.2 20.4zm-1 5.5c-.1.6-.3 1.1-.5 1.7.2-.6.4-1.2.5-1.7zm-5.6-27.4l.2.2c-.1 0-.2-.1-.2-.2zm-.3-.2s.1.1.2.1c-.1 0-.1 0-.2-.1zm-.2-.1zm-.1-.1zm1.7 38.2c-.1-.1-.2-.2-.4-.3l.1.1.3.2zm-.5-37.1l.3.3-.3-.3zm-.3-.4l.3.3c-.2-.1-.2-.2-.3-.3z"
                  fill="none"/>
            <path fill="#2A56C6" d="M98.8 94.8v.2-.2z"/>
            <path fill="#FFE0B2" d="M2.8 109.6L0 110.8V128h15.5L2.8 109.6z"/>
            <path fill="#DD2C00"
                  d="M91.9 128h5.6c-3.8-12-4.4-16-4.9-20.1-.1-.5-.5-2.4-.5-2.9-2.6.7-5.2 1.1-8 1.2-8.7-.2-16.5-3.8-22.3-9.3l-.2-.2-.1-.1c-2.9.2-7.6.2-10.8.6-4.6.6-9.6 1.3-15 2.4-4.7.9-11.2 2.7-33.3 9.3l.5.7L15.5 128h70.2"/>
            <path fill="#FFEB3B"
                  d="M66.2 86.5c0-.1 0-.1.1-.2.1-.6.3-1.1.4-1.6v-.2l.3-1.6v-.1l.2-1.6c1-10.6-2.4-17.3-5.2-20.4-.1-.1-.2-.3-.4-.4l-.1-.1-.3-.3-.1-.1-.3-.3-.1-.1-.2-.2-.1-.1c-.1-.1-.1-.1-.2-.1 0 0-.1 0-.1-.1l-.1-.1s-.1 0-.1-.1c-1.6-1.7-3.3-3-4.9-4.1-.9-.6-1.7-1.2-2.5-1.6-1.8-1.1-3.2-1.6-3.4-1.7-1.3-1.2-2.3-3-2.6-5-.6-4.4.3-6.4 4.3-7.1 1-.2 2-.1 3 .2l.1-.7c.6-.1 1.1-.2 1.6-.4l.5-.1 1.1-.3.5-.2 1-.3.4-.2c.4-.1.7-.3 1.1-.5l.2-.1 1.2-.6.3-.2c.3-.1.5-.3.8-.5.1-.1.3-.2.4-.2.2-.1.4-.3.7-.4.1-.1.2-.2.3-.2l.7-.5c.1-.1.2-.1.2-.2.3-.2.5-.4.8-.7.1-.1.2-.1.2-.2l.5-.5.3-.3.4-.4.3-.3.3-.4c.1-.1.2-.2.2-.3.2-.2.3-.4.4-.6l.6-.9.1-.2c.2-.3.3-.5.5-.7 4.2 5.9 14.5 10.4 39.3 6.7-4.2-14-17.3-23.5-31.3-21.4-5.3.8-10.1 3.2-14 6.6l-.2.2c-.5.4-1 .9-1.4 1.4-5.3 4.8-23.3 19.8-52.2 26.5-3.9 0-7.4 1.6-9.9 4.2v19.3c.3.3.6.6.9.8l-.3.9S30.9 96.4 64 90.3l1.6-1.8c0-.1 0-.1.1-.2.2-.7.4-1.3.5-1.8z"/>
            <path fill="#FFE0B2"
                  d="M84 106.2c2.8-.1 5.4-.5 8-1.2l.8-3.8c4.3-19.3 9.7-37.4 15-52.9h6.9l-4.8-8.2c-.2-1.9-.6-3.6-1.2-5.3-24.8 3.7-35-2.5-39.1-8.4-.3.5-.7 1.1-1.2 1.8l-.4.6-.2.3-.3.4-.3.3-.4.4-.3.3-.5.5s-.1 0-.2.1c-.3.2-.5.4-.8.7-.1.1-.2.1-.2.2-.2.2-.4.3-.7.5-.1.1-.2.2-.3.2-.2.1-.4.3-.7.4-.1.1-.2.2-.4.2l-.8.5-.3.2-1.2.6-.2.1-1.1.5-.4.2c-.3.1-.6.2-1 .3l-.5.2c-.3.1-.7.2-1.1.3l-.5.1-1.6.4c-.1.2-.1.5-.1.7-.9-.3-1.9-.4-3-.2-4.1.6-6.9 4.7-6.3 9.1.3 2 1.2 3.8 2.6 5 .3.1 1.6.7 3.4 1.7.8.4 1.6 1 2.5 1.6 1.5 1.1 3.2 2.5 4.9 4.1l.1.1.1.1.1.1s.1.1.2.1c0 0 .1 0 .1.1l.2.2.1.1.3.3.1.1.3.3.1.1s.2.3.4.4c2.7 3.1 7.2 9.8 6.2 20.4l-.2 1.6v.1l-.3 1.6v.2c-.1.5-.2 1.1-.4 1.6 0 .1 0 .1-.1.2-.1.6-.3 1.1-.5 1.7 0 .1 0 .1-.1.2-.8 2.6-1.8 5.3-3.3 8.3.1.1.2.2.4.3 5.7 5.6 13.5 9.1 22.2 9.3z"/>
            <path fill="#DD2C00" d="M85.6 128h5.1"/>
            <circle fill="#444" cx="95.8" cy="46.5" r="2"/>
        </svg>
        <svg id="svg-9" viewBox="0 0 128 128" height="100%" width="100%" pointer-events="none" display="block">
            <path fill="#FFCC80" d="M41.6 123.8s0 .1-.1.1l.3-.4c-.1.2-.1.2-.2.3z"/>
            <path fill="#FFFF8D" d="M0 0h128v128H0z"/>
            <path fill="#C2C2C2"
                  d="M83.2 26.6c.1-.9.2-1.8.2-2.7C83.4 13.5 75 5 64.6 5s-18.8 8.4-18.8 18.8c0 1.4.2 2.7.4 4 5.4-4 12.2-6.4 19.4-6.4 6.5.1 12.5 2 17.6 5.2z"/>
            <path fill="#848484"
                  d="M41.4 58.4c9.6-1.9 10.3-10.7 11.7-13.2 4.2 5.4 12.4 16.6 36.8 13.5 1.5-2.5 4.4-6 7.4-5.6.3 0 .6.1 1 .2C98 42 92 32.1 83.1 26.5 78 23.3 72 21.4 65.6 21.4c-7.3 0-14 2.4-19.4 6.4-7.9 5.9-13.1 15.2-13.3 25.7.4-.1.9 1.7 1.4 1.7 2.8-.4 5.6 1 7.1 3.2z"/>
            <path fill="#FF5722"
                  d="M109.6 121.5c-1.2-2-2.2-3.6-2.9-4.8l-1.2-1.8-.2-.3c-.5-.8-1.1-1.6-1.8-2.3-3.1-3.3-6.9-5.1-10.8-5.3 0 0 .1 0 .1.1l-.2-.1c-3.4 3.7-7.8 6.6-12.7 8.5V128h33.4c-1.4-2.5-2.6-4.7-3.7-6.5zM42 106l-.2.5c-2.9.8-5.6 2.5-7.8 5.1l-.2.2s-.5.6-1.4 1.6c-.9 1-2 2.4-3.5 4.2-2.1 2.6-4.7 6.1-7.5 10.4h28v-15.7c-2.8-1.7-5.3-3.8-7.4-6.3z"/>
            <path fill="#E0F7FA" d="M67.7 117.7c-6.8-.2-13.1-2.1-18.3-5.4V128h30.5v-12.6c-3.8 1.4-7.9 2.2-12.2 2.3z"/>
            <path fill="#FFE0B2"
                  d="M42 106c2.1 2.4 4.6 4.5 7.4 6.3 5.2 3.3 11.5 5.3 18.3 5.4 4.3-.1 8.4-.9 12.1-2.3 5-1.9 9.3-4.8 12.7-8.5l.2.1s-.1 0-.1-.1c-15.7-12.3-12-21.7-7.8-26.6 1.3-1.1 2.6-2.3 4.1-3.6l12.2-10.3c1.4-1.2 2.4-2.8 2.7-4.8.5-3.8-1.9-7.3-5.4-8.2-.3-.1-.6-.2-1-.2-3.1-.4-5.9 1.1-7.4 3.6-24.4 3.1-32.7-8.1-36.8-13.5-1.5 2.4-2.1 11.3-11.7 13.2-1.6-2.3-4.3-3.6-7.2-3.2l-1.4.3c-3.4 1.1-5.5 4.5-5 8.1.3 1.9 1.3 3.6 2.6 4.7l10.2 8.7c5.8 6 14.1 18.3 1.4 30.7-.1.1-.1.2-.1.2zm37.6-45.3c.8 0 1.5.7 1.5 1.5s-.7 1.5-1.5 1.5-1.5-.7-1.5-1.5c-.1-.9.6-1.5 1.5-1.5zm-24 0c.8 0 1.5.7 1.5 1.5s-.7 1.5-1.5 1.5-1.5-.7-1.5-1.5c-.1-.9.6-1.5 1.5-1.5z"/>
            <circle fill="#444" cx="79.6" cy="62.2" r="2"/>
            <circle fill="#444" cx="55.6" cy="62.2" r="2"/>
        </svg>
        <svg id="svg-10" viewBox="0 0 128 128" height="100%" width="100%" pointer-events="none" display="block">
            <path fill="#FFCC80" d="M41.6 123.8s0 .1-.1.1l.3-.4c-.1.2-.1.2-.2.3z"/>
            <path fill="#8C9EFF" d="M0 0h128v128H0z"/>
            <path fill="#C2C2C2"
                  d="M34.8 79.5c-2.5-3.4-5.9-6.4-6.9-10.3v-.1l-.6-.5c-.3-1.2.6-2 .5-3l-2.4-1h-6.9s0 17 17.4 17.3c-.9-.9-.7-1.8-1.1-2.4z"/>
            <path fill="#CFD8DC"
                  d="M21.9 64.2l-.1-.3c0-.1 0-.2-.1-.4v-1l.1-.3c.1-.1.1-.2.1-.3.1-.1.1-.2.1-.2.2-.4.1-.8-.2-1.1-.4-.4-1-.4-1.3 0l-.2.2-.2.2c-.1.1-.2.2-.3.4l-.3.6-.3.6c-.1.2-.2.4-.2.7 0 .2-.1.5-.1.8v.5h3c.2-.2.1-.3 0-.4z"/>
            <path fill="#eee"
                  d="M116.5 65.2c.1.1.2.1.2.2 0-.1-.1-.2-.2-.2zm8.2 6.1l.6.3c-.3-.1-.4-.2-.6-.3zm1.7 1l.6.3c-.2 0-.4-.1-.6-.3zm-3.4-2.1l.5.3c-.2 0-.4-.2-.5-.3zm-8-6.5zm-.1 64.1c-12-17.2-7.6-52-3.1-67.6v-.1c-3.5-4.2-7.8-11.7-10.2-18.7-1.7-5-4-8.8-6.4-11.8l-1.6-2-10.7 11.8c-1.5 2.1-3.3 1.8-4.1-.6l-7.1-17.3c-.3-.9-.3-1.9 0-2.7.3-1.1-.1-2.1.7-3l-2-.1c-1.3 0-2.5.1-3.7.3-1.7-.3-3.4-.5-5.1-.5-11.9 0-21.9 8.1-24.8 19.2-.5 1.8-.7 3.7-.8 5.6-1.2 3.6-4.2 7.7-11.5 8.4 1.3.4 2.2 1.9 2 3.6l-.5 2.8c-.3 2-1.2 2.4-2.2.9l1.6 8.6.2.9c.1 1.1.3 2.2.6 3.4 1 4 3.2 8.2 7.8 10.9.3.6 1 1.3 2 2.1 8.2 6.7 36 20.7 27.8 46.1h51.3c0-.1-.1-.1-.2-.2zM34.5 59.3c.5 0 1 .4 1 1 0 .5-.4 1-1 1-.5 0-1-.4-1-1s.4-1 1-1zm7.4 3.9c.5 0 1 .4 1 1 0 .5-.4 1-1 1-.5 0-1-.4-1-1 0-.5.5-1 1-1zm-1-8.5c-.5 0-1-.4-1-1 0-.5.4-1 1-1 .5 0 1 .4 1 1s-.5 1-1 1zm3.9-10.9c-.9 0-1.6-.7-1.6-1.6 0-.9.7-1.6 1.6-1.6.9 0 1.6.7 1.6 1.6 0 .9-.7 1.6-1.6 1.6zm73.3 22.7c.1.1.2.2.4.3-.2-.1-.3-.2-.4-.3zm3.2 2.6l.5.3-.5-.3zm-1.6-1.3l.4.3c-.1 0-.3-.1-.4-.3z"/>
            <path fill="#C2C2C2"
                  d="M114.9 127.8l.2.2H128V73.2l-1-.6-.6-.3-1.2-.7-.6-.3-1.2-.7-.5-.3-1.2-.8-.5-.3-1.2-.9-.4-.3-1.2-1c-.1-.1-.2-.2-.4-.3l-1.3-1.2c-.1-.1-.2-.1-.2-.2l-1.5-1.5c-1.5-1.6-3-3.3-4.4-5.1-4.6 15.4-13 52.7 4.3 69.1z"/>
            <path fill="#646464"
                  d="M26 55.1l.4-2.8c.2-1.8-.6-3.2-2-3.6-.3-.1-.7-.2-1.1-.1-2 .1-2.7 1.9-1.6 3.8l1.8 3.3c.1.2.2.3.3.4 1 1.3 1.9 1 2.2-1z"/>
            <circle fill="#444" cx="44.8" cy="42.2" r="2"/>
            <circle fill="#CFD8DC" cx="34.5" cy="60.3" r="1"/>
            <circle fill="#CFD8DC" cx="40.9" cy="53.7" r="1"/>
            <circle fill="#CFD8DC" cx="41.9" cy="64.2" r="1"/>
            <path fill="#646464"
                  d="M70.7 18.8c-.3.8-.3 1.8 0 2.7l8.1 19.3c.8 2.5 2.6 2.7 4.1.6l12.3-11.8 1.4-1.3c.3-.4.5-.9.6-1.3.4-1.2.3-2.4-.1-3.6-1.1-4.3-5.6-8.9-11.2-10.3-5.6-1.4-10.9-.2-13.6 2.7-.8.8-1.3 1.8-1.6 3z"/>
        </svg>
        <svg id="svg-plastic" xmlns="http://www.w3.org/2000/svg" viewBox="0 0 128 128" pointer-events="none"
             display="block">
            <path fill="#FFCC80" d="M41.6 123.8s0 .1-.1.1l.3-.4c-.1.2-.1.2-.2.3z"/>
            <path fill="#FFFF8D" d="M0 0h128v128H0z"/>
            <path fill="#fff5f5"
                  d="M80.129 126.537l-18.477-18.476V97.502L77.49 81.665l15.837-15.837h10.558l18.477 18.477-21.116 21.116z"/>
            <path fill="#efe2dd" d="M77.49 81.665l15.836-15.837h10.558l18.477 18.477-21.116 21.116z"/>
            <path fill="#537983" d="M48.455 36.794l-7.919 7.918-7.918 7.919L16.78 36.794l7.918-7.919 7.919-7.918z"/>
            <path fill="#3e5959" d="M24.699 28.876l7.918-7.919 15.837 15.837-7.918 7.918z"/>
            <path d="M32.324 76.18l-4.985-28.828 7.918-7.919 7.919-7.918 29.07 4.99c2.604.289 3.885 1.57 5.243 2.928 2.91 2.91 2.91 7.648 0 10.558l.44 10.118-10.998 10.998-10.228 10.228-10.888.33c-2.91 2.91-7.674 2.885-10.615-.056-1.206-1.207-2.572-2.573-2.876-5.429z"
                  fill="#fff5f5"/>
            <path d="M72.246 36.505c2.604.289 3.885 1.57 5.243 2.928 2.91 2.91 2.91 7.648 0 10.558l.44 10.118-10.998 10.998-31.674-31.674 7.919-7.918 29.07 4.99z"
                  fill="#efe2dd"/>
            <path d="M45.815 81.665l15.837-15.837L77.49 49.991a7.465 7.465 0 0110.558 0l15.838 15.837-21.117 21.116-21.116 21.117-15.837-15.838a7.465 7.465 0 010-10.558z"
                  fill="#efe2dd"/>
            <path d="M77.49 49.991a7.465 7.465 0 0110.557 0l15.837 15.838-21.116 21.116-21.116-21.116L77.49 49.99z"
                  fill="#cdbfba"/>
            <g>
                <path d="M128.855 82.856v22.397l-11.298 11.87H12.789l-11.348-11.87V82.557l5.002 1.866c4.703 1.718 10.079-2.24 10.079-7.241h7.714c0 4.106 3.36 7.764 7.466 7.764 4.18 0 7.465-3.658 7.465-7.764h7.466c0 4.106 3.36 7.764 7.466 7.764 4.18 0 7.465-3.658 7.465-7.764h7.466c0 4.106 3.36 7.764 7.466 7.764 4.18 0 7.465-3.658 7.465-7.764h7.466c0 4.106 3.36 7.764 7.466 7.764 4.18 0 7.465-3.658 7.465-7.764h7.466c0 4.927 5.55 8.884 10.103 7.316l4.928-1.642z"
                      fill="#9bfcff"/>
                <path d="M128.855 82.856v22.397l-11.298 11.87h-52.41V77.182h3.883c0 4.106 3.36 7.764 7.466 7.764 4.18 0 7.466-3.658 7.466-7.764h7.465c0 4.106 3.36 7.764 7.466 7.764 4.18 0 7.465-3.658 7.465-7.764h7.466c0 4.927 5.55 8.884 10.104 7.316l4.927-1.642z"
                      fill="#76e2f8"/>
                <path d="M128.855 105.253v24.188H1.44v-24.188a15.825 15.825 0 007.316 1.791c6.645 0 10.552-4.106 11.746-4.852 2.763 3.06 6.794 4.852 11.199 4.852 4.479 0 8.51-1.791 11.198-4.852 2.763 3.06 6.794 4.852 11.199 4.852 4.404 0 8.361-1.716 11.049-4.703l.15-.15c2.761 3.062 6.793 4.853 11.198 4.853 4.479 0 8.51-1.791 11.198-4.852 2.762 3.06 6.794 4.852 11.199 4.852 4.628 0 7.988-1.642 11.198-4.852 2.762 3.06 6.794 4.852 11.199 4.852 2.687 0 5.4-.672 7.565-1.791z"
                      fill="#76e2f8"/>
                <path d="M128.855 105.253v24.188H65.148v-27.1l.15-.15c2.762 3.062 6.793 4.853 11.198 4.853 4.479 0 8.51-1.791 11.198-4.852 2.763 3.06 6.794 4.852 11.199 4.852 4.629 0 7.988-1.642 11.198-4.852 2.763 3.06 6.794 4.852 11.199 4.852 2.687 0 5.4-.672 7.565-1.791z"
                      fill="#28cbf7"/>
            </g>
        </svg>

        <svg id="svg-12" viewBox="0 0 128 128" height="100%" width="100%" pointer-events="none" display="block">
            <path fill="#B9F6CA" d="M0 0h128v128H0z"/>
            <path fill="#444"
                  d="M50.4 75.7c-1.6-1.6-3.2-2.9-4.7-4-.9-.6-1-1.7-1.7-2.2-1.8-1-3.2-5.9-5.3-3.4l-.5.8-.4-.9c-1.3-1.2-1-.4-1.3-2.3-.5-4.2 1.2-7.2 5.1-7.8 1-.1 2-.1 2.9.2 9.5-1.8 13.7-7.4 15.2-10 4 5.7 14.3 11.4 38.3 7.8 2.8-4.7 4.5-10.2 4.5-16C102.4 20.8 88.6 7 71.6 7c-6.7 0-12.8 2.1-17.9 5.7L27.9 31C16.3 36.6 8.3 48.5 8.3 62.2c0 19.1 15.5 34.6 34.6 34.6 4.6 0 9-.9 13-2.5.2-8.4-1.4-14.5-5.5-18.6zm-5.9-21.6z"/>
            <path fill="#8D6E63"
                  d="M73.7 122c6.1.5 13.4-.3 22-3.5-.1-.7-.3-1.4-.5-2.1-.3-1.3-3.8-21.4-4-28.1-.1-7.3.8-11.9 2-14.7h8.7l-2.5-10.1c-.2-2.4-.4-4.7-.7-6.6-.2-1.8-.3-2.3-.8-3.9-24 3.6-34.2-3.7-38.2-9.4-1.4 2.5-5.7 8.8-15.3 10.5-.9-.3-1.9-.3-2.9-.2-3.9.6-6.7 4.5-6.1 8.8.3 2 1.2 3.6 2.5 4.8.2.1 1.5.6 3.3 1.7.7.4 1.6.9 2.4 1.6 1.5 1.1 3.1 2.4 4.7 4 4 4.1 7.6 10.2 7.4 18.5-.1 4.9-1.6 10.6-5.1 17.2.1 0 7.3 10.2 23.1 11.5zM44.5 54.1z"/>
            <path fill="#FFCC80" d="M41.6 123.8s.1-.2.2-.3c-.1.2-.1.2-.2.3z"/>
            <circle fill="#444" cx="83.5" cy="63.1" r="2"/>
            <path fill="#0097A7"
                  d="M73.7 122c-15.9-1.3-23-11.5-23-11.5-2.1 4-5.1 8.4-8.9 13.1l-.3.4c-.5.6-1.1 1.3-1.7 2-.5.6-1 1.3-1.6 2.1h59.7c-.7-3.2-1.5-6.4-2.1-9.5-8.7 3.1-16 3.9-22.1 3.4z"/>
        </svg>
        <svg id="svg-13" viewBox="0 0 128 128" height="100%" width="100%" pointer-events="none" display="block">
            <path fill="#448AFF" d="M0 0h128v128H0z"/>
            <g fill="#00BFA5">
                <path d="M73 18.7c-4.8 0-9.7.8-14 2.3-.1.1-.2.2-.4.3l-7.3 4.6c-.6.4-1.4.4-2 .1-.3-.2-.6-.4-.8-.7l-.7-1.1c-.6-1-.3-2.2.6-2.8l7.3-4.6c.4-.2.8-.3 1.2-.3-5.5-3-23.7-10.7-33.7 10.7-11.8 25.4 11 50.2-14.4 62.6 0 0 26.2 13.7 40.9-24.8 3.7 3.2 8.8 5.8 16 7.4-.6-5.6.8-9.8-2.1-12.8-1.3-1.4-2.7-1.5-4-2.4-.7-.5-1.4-.9-2-1.3-1.5-.9-2.6-1.3-2.8-1.4-1.1-1-1.9-2.4-2.1-4.1-.5-3.6-2.2-6.9 1.1-7.4.8-.1 1.6-.1 2.4.2 8-1.5 11.6-6.7 12.8-8.9 3.4 4.8 11.7 9.8 31.9 6.8.3 1.1.6 1.2.8 2.4l.5-1.3c-.1-13-13.2-23.5-29.2-23.5zM56.1 43.2zm5.3 46.5s6 8.6 19.4 9.7c5.1.4 11.3-.3 18.6-2.9-.1-.6-.3-1.2-.4-1.7-.2-1.1-3.2-18-3.4-23.6-.2-6.2.6-10 1.6-12.4h7.3l-2.1-8.5c-.1-2-.4-3.9-.6-5.6 0-.3-.1-.7-.2-1-.2-1.1-.4-2.3-.8-3.4-20.2 3-28.5-2-31.9-6.8-1.2 2.1-4.8 7.4-12.8 8.9-.8-.2-1.6-.3-2.4-.2-3.3.5-5.6 3.8-5.1 7.4.2 1.7 1 3.1 2.1 4.1.2.1 1.3.5 2.8 1.4.6.4 1.3.8 2 1.3 1.3.9 2.6 2 4 3.4 2.9 3 5.6 7.2 6.1 12.8.5 4.5-.6 10.2-4.2 17.1zm27.5-41.2c.7 0 1.3.6 1.3 1.3s-.6 1.3-1.3 1.3-1.3-.6-1.3-1.3.6-1.3 1.3-1.3zm-32.8-5.3c.1-.1 0-.1 0 0zm-2.4 57.7l.2-.2-.2.2z"/>
                <circle cx="88.9" cy="49.8" r="2"/>
                <path d="M80.8 99.3c-13.3-1.1-19.4-9.7-19.4-9.7-1.8 3.4-4.3 7.1-7.5 11l-.3.3c-.4.5-.9 1.1-1.4 1.7-.7.9-1.6 2.1-2.8 3.7-2.3 3.2-5.4 7.8-8.8 13.5-1.4 2.4-2.9 5.1-4.4 8 0 0 0 .1-.1.1h71.3c-.6-1.6-1.3-3.2-1.7-4.8-2.2-8.6-4.6-17.9-6.5-26.8-7.2 2.8-13.3 3.5-18.4 3zM55.7 16.7l-7.3 4.6c-1 .6-1.3 1.9-.6 2.8l.7 1.1c.2.3.5.6.8.7.6.3 1.4.3 2-.1l7.3-4.6.4-.3c.7-.7.8-1.7.3-2.5l-.7-1.1c-.4-.6-1-.9-1.6-1-.5 0-1 .1-1.3.4z"/>
            </g>
            <path fill="#444"
                  d="M73 18.7c-4.8 0-9.7.8-14 2.3-.1.1-.2.2-.4.3l-7.3 4.6c-.6.4-1.4.4-2 .1-.3-.2-.6-.4-.8-.7l-.7-1.1c-.6-1-.3-2.2.6-2.8l7.3-4.6c.4-.2.8-.3 1.2-.3-5.5-3-23.7-10.7-33.7 10.7-11.8 25.4 11 50.2-14.4 62.6 0 0 26.2 13.7 40.9-24.8 3.7 3.2 8.8 5.8 16 7.4-.6-5.6.8-9.8-2.1-12.8-1.3-1.4-2.7-1.5-4-2.4-.7-.5-1.4-.9-2-1.3-1.5-.9-2.6-1.3-2.8-1.4-1.1-1-1.9-2.4-2.1-4.1-.5-3.6-2.2-6.9 1.1-7.4.8-.1 1.6-.1 2.4.2 8-1.5 11.6-6.7 12.8-8.9 3.4 4.8 11.7 9.8 31.9 6.8.3 1.1.6 1.2.8 2.4l.5-1.3c-.1-13-13.2-23.5-29.2-23.5zM56.1 43.2z"/>
            <path fill="#FFE0B2"
                  d="M61.4 89.7s6 8.6 19.4 9.7c5.1.4 11.3-.3 18.6-2.9-.1-.6-.3-1.2-.4-1.7-.2-1.1-3.2-18-3.4-23.6-.2-6.2.6-10 1.6-12.4h7.3l-2.1-8.5c-.1-2-.4-3.9-.6-5.6 0-.3-.1-.7-.2-1-.2-1.1-.4-2.3-.8-3.4-20.2 3-28.5-2-31.9-6.8-1.2 2.1-4.8 7.4-12.8 8.9-.8-.2-1.6-.3-2.4-.2-3.3.5-5.6 3.8-5.1 7.4.2 1.7 1 3.1 2.1 4.1.2.1 1.3.5 2.8 1.4.6.4 1.3.8 2 1.3 1.3.9 2.6 2 4 3.4 2.9 3 5.6 7.2 6.1 12.8.5 4.5-.6 10.2-4.2 17.1zm27.5-41.2c.7 0 1.3.6 1.3 1.3s-.6 1.3-1.3 1.3-1.3-.6-1.3-1.3.6-1.3 1.3-1.3zm-32.8-5.3c.1-.1 0-.1 0 0z"/>
            <path fill="#FFCC80" d="M53.7 100.9l.2-.2-.2.2z"/>
            <circle fill="#444" cx="88.9" cy="49.8" r="2"/>
            <path fill="#FF5722"
                  d="M80.8 99.3c-13.3-1.1-19.4-9.7-19.4-9.7-1.8 3.4-4.3 7.1-7.5 11l-.3.3c-.4.5-.9 1.1-1.4 1.7-.7.9-1.6 2.1-2.8 3.7-2.3 3.2-5.4 7.8-8.8 13.5-1.4 2.4-2.9 5.1-4.4 8 0 0 0 .1-.1.1h71.3c-.6-1.6-1.3-3.2-1.7-4.8-2.2-8.6-4.6-17.9-6.5-26.8-7.2 2.8-13.3 3.5-18.4 3z"/>
            <path fill="#00BFA5"
                  d="M55.7 16.7l-7.3 4.6c-1 .6-1.3 1.9-.6 2.8l.7 1.1c.2.3.5.6.8.7.6.3 1.4.3 2-.1l7.3-4.6.4-.3c.7-.7.8-1.7.3-2.5l-.7-1.1c-.4-.6-1-.9-1.6-1-.5 0-1 .1-1.3.4z"/>
        </svg>
        <svg id="svg-14" viewBox="0 0 128 128" height="100%" width="100%" pointer-events="none" display="block">
            <path fill="#B388FF" d="M0 0h128v128H0z"/>
            <path fill="#1C3AA9" d="M70.5 128h12.4c-5.1-15.8-6.6-23.9-7.2-28.4-1.9 8.8-4 19.3-5.2 28.4z"/>
            <path d="M92.9 32.8l-.2.1c.1 0 .2 0 .2-.1zm-1.2.5l-.7.1.7-.1zm.6-.2l-.3.1.3-.1zm-52 .3c-.2 0-.5 0-.7-.1.3 0 .5.1.7.1zm-.9-.2l-.5-.1.5.1zm-.7-.2c-.2-.1-.4-.2-.5-.3.1.1.3.2.5.3z"
                  fill="none"/>
            <path fill="#2A56C6" d="M82.9 90.8v.2-.2z"/>
            <path fill="#FFE0B2"
                  d="M31.2 47.2zM45.8 93c5.8 5.5 13.6 9.1 22.3 9.3 2.8-.1 5.4-.5 8-1.2l.8-3.8c4.3-19.3 9.7-37.4 15-52.9h6.9L94 36.2c-.2-1.2-.4-2.5-.7-3.6l-.4.3-.2.1-.4.2-.3.1-.3.1-.7.1H40.3c-.2 0-.5 0-.7-.1-.1 0-.1 0-.2-.1l-.5-.1-.2-.1c-.2-.1-.4-.2-.5-.3 0 0-.1 0-.1-.1-.1.2-.1.4-.1.7-1-.3-2-.4-3-.3-4.1.6-6.9 4.7-6.3 9.1.3 2 1.2 3.8 2.6 5 .3.1 1.6.7 3.4 1.7.8.4 1.6 1 2.5 1.6 1.5 1.1 3.2 2.5 4.9 4.1 0 0 16.3 12.3 3.4 38 .1.2.2.3.3.4zm34.1-51.9c.8 0 1.5.7 1.5 1.6 0 .9-.7 1.6-1.5 1.6s-1.5-.7-1.5-1.6.6-1.6 1.5-1.6z"/>
            <path fill="#2A56C6"
                  d="M68.1 102.3c-8.7-.2-16.5-3.8-22.3-9.3-.1-.1-.2-.2-.4-.3-3-.2-7.6.2-10.8.6-4.6.6-9.6 1.3-15 2.4-3.6.7-8.1 1.9-19.7 5.3v27h71.4c1.3-9.1 2.9-18.1 4.7-26.9-2.5.7-5.1 1.1-7.9 1.2z"/>
            <path fill="#6D4C41" d="M61.8 9.8c-7.3 1.1-13.6 5.1-17.9 10.8h43.7C81.5 12.7 71.9 8.3 61.8 9.8z"/>
            <path fill="#E65100"
                  d="M38.7 33l.2.1c.2.1.3.1.5.1.1 0 .1 0 .2.1l.7.1H91c.2 0 .5 0 .7-.1l.3-.1.3-.1c.1 0 .3-.1.4-.2l.2-.1.4-.3c1-.7 1.6-1.9 1.6-3.2v-4.8c0-2.2-1.8-4-4-4H40.4c-2.2 0-4 1.8-4 4v4.8c0 1.4.7 2.6 1.8 3.3 0 0 .1 0 .1.1s.2.2.4.3z"/>
            <ellipse fill="#444" cx="79.9" cy="42.7" rx="2" ry="2.2"/>
        </svg>
        <svg id="svg-15" viewBox="0 0 128 128" height="100%" width="100%" pointer-events="none" display="block" y="256">
            <path fill="#FF80AB" d="M0 0h128v128H0z"/>
            <path fill="#5D4037"
                  d="M87.3 11.7c-7.6 0-14.1 4.9-16.4 11.7-2.8-1.6-5.9-2.7-9.1-3.1-13.9-2.1-26.9 7.1-31.1 21.1 5 .8 9.5 3.1 13.4 3.1 1.4-.6 3-.9 4.6-.9 1.1 0 2.2.2 3.3.5 10-1.3 15.2-5.2 17.9-9 .3.5.6 1 1 1.6v.1c2.1 3.1 6.6 7.7 14.7 9.2.9-.3 1.9-.4 3-.2 1.5.2 2.8-1.1 3.8-.1 7-2.2 12.2-8.8 12.2-16.5 0-9.7-7.8-17.5-17.3-17.5z"/>
            <path d="M70.9 36.6c-.4-.6-.8-1.2-1-1.6.2.5.5 1 1 1.6z" fill="none"/>
            <path fill="#5D4037" d="M85.6 45.9z"/>
            <path fill="#FFCC80"
                  d="M48.6 63.8c5.6 0 10.1-4.5 10.1-10.1s-4.5-10.1-10.1-10.1-10.1 4.5-10.1 10.1c.1 5.5 4.6 10.1 10.1 10.1zm-1.7-10.5c0 .9-.7 1.6-1.6 1.6-.9 0-1.6-.7-1.6-1.6 0-.9.7-1.6 1.6-1.6.9-.1 1.6.7 1.6 1.6zm38.7-7.4z"/>
            <path fill="#F9A825"
                  d="M35.6 117.3c0 2.5 2.1 4.6 4.6 4.6s4.6-2.1 4.6-4.6c0-1.7-.9-3.2-2.3-4-.8-.2-1.8-.3-2.7-.6-2.3.3-4.2 2.2-4.2 4.6z"/>
            <circle fill="#F9A825" cx="64.3" cy="117.1" r="4.6"/>
            <path fill="#F9A825"
                  d="M83.4 117.3c0 2.5 2.1 4.6 4.6 4.6 1.5 0 2.8-.7 3.7-1.8l-.7-.9-.6-.8c-.6-.7-1.3-1.5-1.8-2.1l-.3-.4c-.4-.5-.8-.9-1.2-1.5-.3-.4-.6-.8-.9-1.3-1.7.8-2.8 2.4-2.8 4.2z"/>
            <path fill="#FFEE58"
                  d="M91.6 119.8c-.8 1-2.1 1.7-3.5 1.7-2.4 0-4.4-2-4.4-4.4 0-1.8 1-3.3 2.5-4-3-3.9-5.3-7.5-7.2-11 .2.1-7.3 10.6-23.7 12-3.8.3-8 .1-12.8-.8 1.3.8 2.2 2.2 2.2 3.8 0 2.4-2 4.4-4.4 4.4s-4.4-2-4.4-4.4c0-2.3 1.8-4.2 4-4.4-2.4-.6-4.8-1.3-7.4-2.2-1.2 5.7-2.6 11.6-4.1 17.5h69c-1.4-2-2.6-3.8-3.7-5.3m-29.4-1.2c-2.4 0-4.4-2-4.4-4.4s2-4.4 4.4-4.4 4.4 2 4.4 4.4c0 2.4-2 4.4-4.4 4.4z"/>
            <path fill="#FFCC80"
                  d="M92.4 45.6c-1-1-2.4-1.7-3.8-1.9-1-.2-2-.1-3 .2-8.1-1.5-12.6-6.1-14.7-9.2-.5-.7-.8-1.2-1.1-1.7-2.7 3.8-7.9 7.7-17.9 9l.9.3-9.4.4.6-.3c-3.9 0-8.3-.4-13.4-1.1-.5 1.7-.9 3.5-1.2 5.3-.2 1.8-.5 3.8-.6 6l-.3 2-2.3 9.4h9c1.2 3 2.1 7.7 1.9 15.3-.2 6.9-3.9 27.7-4.2 29-.1.7-.3 1.4-.5 2.1 2.6.9 5 2 7.3 2.5l2.7.5c4.8.9 9.2 1.4 13 1.1 16.4-1.3 24-12 24-12-9.8-18.4-4.6-30.7 2.1-37.5 1.6-1.7 3.3-3 4.9-4.1.9-.6 1.7-1.2 2.5-1.6 1.8-1.1 3.2-1.6 3.4-1.7 1.3-1.2 2.3-3 2.6-5 .3-2.6-.7-5.3-2.5-7zm-32.9 2.7c.5 1 .8 2 1 3.1l-1-3.1z"/>
            <path fill="#DB4437"
                  d="M36.6 54.7c.5 6.2 5.7 11.1 12 11.1 6.7 0 12.1-5.4 12.1-12.1 0-5.5-3.7-10.2-8.8-11.6-1-.3-2.1-.5-3.3-.5-1.6 0-3.2.3-4.6.9-4.1 1.7-7.1 5.6-7.4 10.2h-7.7l-.1.9-.3 1.1h8.1zm12-11.1c5.6 0 10.1 4.5 10.1 10.1s-4.5 10.1-10.1 10.1-10.1-4.5-10.1-10.1c.1-5.6 4.6-10.1 10.1-10.1z"/>
            <circle fill="#444" cx="45.3" cy="53.3" r="2"/>
        </svg>
        <svg id="svg-16" viewBox="0 0 128 128" height="100%" width="100%" pointer-events="none" display="block">
            <path fill="#B388FF" d="M0 0h128v128H0z"/>
            <path fill="#444"
                  d="M58.4 24c4.2 5.9 23.9 10.2 38.9 4.6-4.2-14-17.1-23.2-31.1-21.1-11.7 1.8-20.8 11.2-23.7 22.9 7 3.2 14.5-3.8 15.9-6.4z"/>
            <path fill="#689F38"
                  d="M72.7 101.3C56.3 100 48.8 89.4 48.8 89.4c-2.2 4.2-5.2 8.7-9.2 13.5l-.3.4-1.7 2c-.9 1.1-2 2.6-3.4 4.5-2.8 3.9-6.6 9.5-10.8 16.6l-.8 1.4h80.1c-2.5-9.8-5.1-20.3-7.3-30.2-8.9 3.4-16.5 4.3-22.7 3.7z"/>
            <path fill="#FFCC80"
                  d="M101.8 51.3l-2.6-10.4c-.2-2.5-.5-4.9-.7-6.9-.2-1.9-.6-3.6-1.2-5.3-24.8 3.7-35-2.5-39.1-8.4-1.5 2.6-5.8 8.4-15.6 10.2-.1.2-.1.5-.1.7-.9-.3-1.9-.4-3-.2-4.1.6-6.9 4.7-6.3 9.1.3 2 1.2 3.8 2.6 5 .3.1 1.6.7 3.4 1.7.8.4 1.6 1 2.5 1.6 1.5 1.1 3.2 2.5 4.9 4.1 6.6 6.8 12.1 18.6 2.4 37 0 0 7.4 10.6 23.8 11.9 6.3.5 13.8-.3 22.8-3.6l-.5-2.1c-.3-1.4-4-22.1-4.2-29-.2-7.6.7-12.3 1.9-15.3h9zM81.1 40.5c0-.9.7-1.6 1.6-1.6.9 0 1.6.7 1.6 1.6 0 .9-.7 1.6-1.6 1.6-.9.1-1.6-.7-1.6-1.6zm-41.7 62.8s0 .1-.1.1l.3-.4c0 .1-.1.2-.2.3z"/>
            <circle fill="#444" cx="82.7" cy="40.5" r="2"/>
        </svg>
        <svg id="svg-light" xmlns="http://www.w3.org/2000/svg" viewBox="0 0 128 128" pointer-events="none"
             display="block">
            <path fill="#FF8A80" d="M0 0h128v128H0z"/>
            <path d="M89.1 102.8l.4-.3c-.1 0-.3.1-.4.3zm2.2-1.9l-.5.4c.2-.2.3-.3.5-.4zm-18 9.2c-.1 0-.2 0-.3.1.1-.1.2-.1.3-.1zm-2.4.4h-.2.2zm16.1-6.2l.3-.2-.3.2zm-9 4.5l.5-.2-.5.2zm4.9-2.1l.2-.1c-.1.1-.1.1-.2.1zm2-1.1l.5-.3-.5.3zm-4.6 2.3l.4-.2c-.1.1-.2.2-.4.2zm12.6-8.6zM30.3 41.7c-.3 0-.5.1-.7.1.2 0 .5 0 .7-.1zm35.9 69.2c-.6 0-1.2 0-1.9-.1.6 0 1.2.1 1.9.1z"
                  fill="none"/>
            <path d="M70.241 115.5H60.76a1.58 1.58 0 00-1.58 1.58v1.58a6.328 6.328 0 006.321 6.322 6.328 6.328 0 006.322-6.322v-1.58a1.58 1.58 0 00-1.58-1.58z"
                  fill="#868491"/>
            <path d="M65.499 115.5h-4.74a1.58 1.58 0 00-1.58 1.58v1.58a6.327 6.327 0 006.32 6.322V115.5z"
                  fill="#5c546a"/>
            <path d="M90.386 33.694c-7.387-6.942-17.062-10.42-27.209-9.783-18.492 1.15-33.432 16.576-34.009 35.119-.426 13.738 6.79 26.387 18.835 33.013 2.994 1.648 4.854 4.813 4.854 8.263v12.033a6.328 6.328 0 006.321 6.321h12.643a6.328 6.328 0 006.321-6.321v-12.033a9.456 9.456 0 014.893-8.283c11.604-6.402 18.813-18.6 18.813-31.836 0-9.991-4.178-19.648-11.462-26.493z"
                  fill="#ffcd00"/>
            <circle cx="256.002" cy="184.008" r="128" fill="#ffe671"
                    transform="matrix(.19755 0 0 .19755 14.927 23.837)"/>
            <path d="M71.027 69.67c-2.1 0-3.175-1.226-3.957-2.12-.69-.787-.965-1.042-1.58-1.042-.613 0-.886.255-1.573 1.04-.738.845-1.854 2.121-3.954 2.121s-3.215-1.276-3.953-2.12c-.687-.786-.96-1.04-1.572-1.04a1.58 1.58 0 110-3.161c2.098 0 3.214 1.276 3.952 2.12.687.786.96 1.04 1.573 1.04.612 0 .887-.254 1.574-1.04.738-.844 1.854-2.12 3.952-2.12 2.1 0 3.175 1.225 3.957 2.119.69.787.965 1.041 1.58 1.041.615 0 .89-.254 1.58-1.04.739-.844 1.855-2.12 3.957-2.12a1.58 1.58 0 110 3.16c-.616 0-.89.255-1.58 1.042-.74.844-1.856 2.12-3.956 2.12z"
                  fill="#fff"/>
            <path d="M60.758 99.696a1.583 1.583 0 01-1.544-1.244l-7.902-36.348a1.583 1.583 0 011.209-1.881 1.578 1.578 0 011.881 1.208l7.902 36.348a1.583 1.583 0 01-1.546 1.917zM70.243 99.696a1.583 1.583 0 01-1.546-1.917l7.901-36.348a1.578 1.578 0 011.881-1.208 1.583 1.583 0 011.209 1.88l-7.902 36.349a1.582 1.582 0 01-1.543 1.244z"
                  fill="#5c546a"/>
            <path d="M52.585 98.116c.168.71.272 1.44.272 2.19v12.033a6.328 6.328 0 006.321 6.321h12.643a6.328 6.328 0 006.322-6.321v-12.033c0-.75.104-1.48.273-2.19h-25.83z"
                  fill="#b4b6bc"/>
            <path d="M65.499 98.116H52.585c.168.71.272 1.44.272 2.19v12.033a6.328 6.328 0 006.321 6.321h6.32V98.116zM65.499 102.857h12.643v3.16H65.499zM65.5 109.178h12.642v3.16H65.5z"
                  fill="#868491"/>
            <path fill="#5c546a" d="M52.856 102.857h12.643v3.16H52.856zM52.856 109.178h12.643v3.16H52.856z"/>
        </svg>

        <svg id="svg-battery" xmlns="http://www.w3.org/2000/svg" xmlns:xlink="http://www.w3.org/1999/xlink"
             viewBox="0 0 128 128" pointer-events="none" display="block">
            <defs>
                <linearGradient gradientUnits="userSpaceOnUse" gradientTransform="scale(.8193 1.22057)" id="d"
                                x1="105.248" x2="139.045" xlink:href="#a" y1="87.532" y2="68.14"/>
                <linearGradient id="a">
                    <stop offset="0" stop-color="#fff" stop-opacity="0"/>
                    <stop offset=".5" stop-color="#fff" stop-opacity=".247"/>
                    <stop offset="1" stop-color="#fff" stop-opacity="0"/>
                </linearGradient>
                <linearGradient gradientUnits="userSpaceOnUse" gradientTransform="scale(.74243 1.34693)" id="e"
                                x1="159.221" x2="138.165" xlink:href="#b" y1="13.65" y2="28.713"/>
                <linearGradient id="b">
                    <stop offset="0"/>
                    <stop offset="1" stop-opacity="0"/>
                </linearGradient>
                <linearGradient gradientUnits="userSpaceOnUse" gradientTransform="scale(.9648 1.03649)" id="f"
                                x1="37.101" x2="57.767" xlink:href="#b" y1="64.189" y2="55.365"/>
                <linearGradient gradientUnits="userSpaceOnUse" gradientTransform="scale(1.1882 .84161)" id="g"
                                x1="30.004" x2="46.992" xlink:href="#c" y1="48.293" y2="38.236"/>
                <linearGradient id="c">
                    <stop offset="0" stop-color="#fff"/>
                    <stop offset="1" stop-color="#fff" stop-opacity="0"/>
                </linearGradient>
                <linearGradient gradientUnits="userSpaceOnUse" gradientTransform="scale(1.69946 .58842)" id="h"
                                x1="35.221" x2="38.929" xlink:href="#c" y1="31.992" y2="29.252"/>
                <linearGradient gradientUnits="userSpaceOnUse" gradientTransform="scale(1.50608 .66398)" id="i"
                                x1="40.244" x2="44.079" xlink:href="#c" y1="37.148" y2="33.451"/>
                <linearGradient gradientUnits="userSpaceOnUse" gradientTransform="scale(1.1062 .904)" id="j" x1="60.063"
                                x2="65.888" xlink:href="#a" y1="23.48" y2="20.898"/>
                <linearGradient gradientUnits="userSpaceOnUse" gradientTransform="scale(1.68425 .59374)" id="k"
                                x1="36.909" x2="33.895" xlink:href="#c" y1="19.489" y2="21.842"/>
                <linearGradient gradientUnits="userSpaceOnUse" gradientTransform="scale(1.26546 .79022)" id="l"
                                x1="70.863" x2="54.973" xlink:href="#c" y1="6.391" y2="17.524"/>
                <linearGradient gradientUnits="userSpaceOnUse" gradientTransform="scale(1.0123 .98785)" id="m"
                                x1="49.75" x2="71.528" xlink:href="#c" y1="150.488" y2="129.345"/>
            </defs>
            <path fill="#B9F6CA" d="M0 0h128v128H0z"/>
            <path d="M38.9 47.4zm.7 0z" fill="none"/>
            <path fill="#FFCC80" d="M36.3 119.3s.1-.2.2-.3c-.1.1-.2.2-.2.3z"/>
            <path d="M63.302 14.942c-4.198-.018-9.04.7-14.02 2.21-13.28 4.025-22.571 12.205-20.737 18.256 0 0 28.946 76.333 28.955 76.361 1.834 6.052 14.318 7.276 27.598 3.25 13.28-4.025 22.571-12.206 20.737-18.257L76.55 19.03c-1.49-2.723-6.893-4.06-13.25-4.088z"
                  fill-rule="evenodd"/>
            <path d="M56.867 35.327c-13.28 4.026-25.33 4.145-27.738.438 0 0 6.884 18.842 6.892 18.871 1.835 6.051 13.682 7.275 26.962 3.25C76.263 53.86 85.554 45.68 83.72 39.628l-7.514-20.432c-.429 5.975-5.237 11.015-19.34 16.131z"
                  fill="#eca548" fill-rule="evenodd"/>
            <path d="M31.71 33.413C27.467 21.745 67.774 13.26 72.017 18.775 77.32 30.02 38.499 40.201 31.71 33.413z"
                  fill="#dcdcdc" fill-rule="evenodd"/>
            <path d="M61.904 15.325c-4.3.157-8.85.902-12.51 2.254-15.061 4.455-22.063 13.136-20.578 17.379 2.97 7.212 20.491 3.556 29.189.586 13.365-4.455 19.35-11.463 18.077-16.342-.53-2.784-7.01-4.138-14.178-3.877zM62.671 19c3.616-.255 6.386.206 7.235 1.69 3.394 5.516-30.78 18.457-34.599 10.82-2.068-4.614 16.515-11.744 27.364-12.51z"
                  fill="#eca548" fill-rule="evenodd"/>
            <path d="M76.995 19.72l-.978-.992c.418 1.55-.048 4.316-.882 5.861-.834 1.546-2.243 3.08-4.08 4.53-3.673 2.902-9.03 5.459-14.718 7.236-5.688 1.777-11.708 2.784-16.702 2.637-4.994-.147-9.371-1.717-10.991-4.368l-.157.96c1.88 3.077 5.99 4.159 11.125 4.31 5.136.151 11.228-.88 16.995-2.682 5.768-1.803 11.207-4.388 15.012-7.394 1.902-1.502 3.411-3.102 4.328-4.8.916-1.7 1.531-3.506 1.048-5.297z"
                  fill-rule="evenodd"/>
            <path d="M61.307 39.223l1.73 4.583 4.568-1.724.78 2.064-4.57 1.724 1.73 4.583-2.083.786-1.73-4.583-4.57 1.725-.778-2.064 4.569-1.725-1.73-4.582 2.084-.787"
                  font-weight="700" font-size="12" font-family="Bitstream Vera Sans"/>
            <path d="M90.104 99.614c1.586 1.747-.22 3.09-.969 4.506 1.535.38 3.996.383 3.7 2.579-1.894-.182-3.837-1.15-5.742-.863-1.434.75-3.482 1.427-3.162-.932 2.298-.37 3.873-1.902 5.054-3.825l1.12-1.465zm-4.69-2.124c1.174 2.912 3.272-2.48.547-1.065-.682.084-1.102.452-.547 1.065zm-1.647-.277c-1.43 1.009-4.207 1.25-3.117-1.03 2.348-.412 5.176-2.328 7.135-2.126.673 1.722 2.517 4.5.363 5.835-1.42.357-3.071-1.09-3.553 1.032-.958.933-1.976 2.67-2.384.494-.533-1.56 3.026-2.34 1.556-4.205zm1.196-10.04c.379 1.635 2.17 3.776 1.617 5.077-2.216 1.249-1.501-4.493-3.626-2.03.445 1.09 1.95 3.432-.42 2.995-.265-1.435-1.718-3.881-2.743-1.607.599 1.03 1.985 3.551-.33 3.002-.397-1.92-3.554-5.154-.11-5.411l5.612-2.026zM81.916 79.8c.578 2.155 2.629 4.837 2.269 6.656-2.028 1.11-1.197-3.225-3.354-1.54-1.567.195-4.045 2.354-4.975 1.042-1.065-2.204 3.017-1.843 4.286-2.848 3.437-.34-1.825-2.6 1.774-3.31zm-2.796-6.764c.58 2.155 2.63 4.838 2.27 6.657-2.029 1.11-1.197-3.226-3.355-1.541-1.567.195-4.044 2.355-4.975 1.043-1.064-2.205 3.018-1.843 4.287-2.848 3.437-.341-1.825-2.6 1.773-3.31zm-6.777.617c-.657-1.376-.741-3.203-2.59-2.9-1.528-1.185-.25-2.292 1.285-1.67 2.088.274 5.324-.92 6.645.547 1.6 2.623-3.056 3.708-4.293 5.547-1.05 1.57-2.181 1.031-2.058-.725.212-.405.724-.458 1.011-.799zm.409-2.871c.29 1.174.92 2.506 1.941.984 3.39-2.052-.944-.667-1.941-.984zm-.803-7.042c1.598 2.427 2.33-2.883-.082-1.155-.553.2-.022.834.082 1.155zm-3.247 1.242c1.795 3.022 3.06-3.358.015-1.243-.653.19-.264.895-.015 1.243zm3.384.705c-.431 3.682-5.479 1.404-5.175-1.476-1.914-2.676 3.132-2.444 4.583-3.526 1.438-.743 2.593-1.062 2.878.853 1.732 1.824.536 6.149-2.286 4.15z"
                  font-weight="700" font-size="12" font-family="Bitstream Vera Sans" fill="#fff"/>
            <path d="M64.992 18.458c-5.697-.045-11.249 1.597-16.572 3.488-4.319 1.665-8.723 2.736-12.295 6.472-1.263.952-2.117 2.88-.765 4.137 2.03 2.274 5.414 2.267 8.22 2.06 6.33-.681 12.4-2.917 18.086-5.707 2.95-1.575 6.069-3.19 8.158-5.88 1.047-1.175.587-3.009-.833-3.624-1.208-.691-2.63-.885-3.999-.946zm-2.502.947c2.195-.104 4.709-.268 6.548 1.152 1.337 1.431-.892 2.964-1.87 3.894-4.376 3.332-9.51 5.52-14.69 7.276-4.277 1.314-8.795 2.544-13.298 1.869-1.51-.27-3.608-1.174-3.647-2.726.189-1.539 2.046-3.024 3.355-3.965 5.576-3.364 11.906-5.107 18.22-6.625 1.773-.402 3.569-.724 5.382-.875z"
                  fill-rule="evenodd"/>
            <path d="M48.899 18.932c-3.826 1.298-6.5 3.609-5.973 5.161l1.715 3.634c.593 1.5 3.973 1.503 7.752.22 3.825-1.297 6.5-3.608 5.973-5.161-.04-.116-1.562-3.356-1.578-3.403-.264-.777-3.714-2.07-7.89-.451z"
                  fill="#c8c8c8" fill-rule="evenodd" stroke="#000" stroke-width=".72128pt"/>
            <path d="M56.382 19.08c-.2.742-.91 1.677-1.96 2.399-1.051.722-2.433 1.36-3.855 1.848-1.422.488-2.88.832-4.148.97-1.266.137-2.56.186-3.219-.501l-.1.886c.82.388 2.06.64 3.41.493a20.541 20.541 0 004.35-.991c1.482-.51 2.912-1.174 4.057-1.961 1.145-.788 2.214-1.474 2.322-2.795l-.857-.348z"
                  fill-rule="evenodd"/>
            <path d="M54.928 40.667c13.611-.608 28.009-5.349 39.19-12.726.031.14 41.505 106.139 41.47 106.177-1.724 2.402-19.858 12.951-37.228 13.99L54.928 40.666z"
                  transform="matrix(.72128 0 0 .72128 2.647 10.502)" fill="url(#d)" fill-rule="evenodd"/>
            <path d="M103.276 15.579l9.513 25.882c.892 6.019-7.266 14.223-12.232 16.855C99.381 55.375 89.3 30.659 89.3 30.659c4.013-1.337 12.858-8.074 13.976-15.08z"
                  transform="matrix(.72128 0 0 .72128 2.647 10.502)" fill="url(#e)" fill-rule="evenodd"/>
            <path d="M37.113 36.098l9.919 27.194c4.235 5.461 10.81 6.13 20.73 5.573.11.111-8.47-28.754-8.47-28.754-6.13 1.003-17.61.78-22.18-4.013z"
                  transform="matrix(.72128 0 0 .72128 2.647 10.502)" fill="url(#f)" fill-rule="evenodd"/>
            <path d="M49.894 16.194c-2.577.927-15.566 10.308-13.71 17.112 2.886 7.628 22.266 7.113 32.678 4.123-6.598-2.577-21.855-5.566-18.968-21.235z"
                  transform="matrix(.72128 0 0 .72128 2.647 10.502)" fill="url(#g)" fill-rule="evenodd"/>
            <path d="M60.298 14.24s-4.219 1.541-3.91 4.428c2.474 2.061 13.71-1.65 14.536-2.99-4.858.968-8.682 2.55-10.626-1.438z"
                  transform="matrix(.72128 0 0 .72128 2.647 10.502)" fill="url(#h)" fill-rule="evenodd"/>
            <path d="M57.316 20.214s1.031 3.196 2.062 4.123c3.711 1.238 6.597-.103 8.453-.515-6.804-.31-6.804-3.299-10.515-3.608z"
                  transform="matrix(.72128 0 0 .72128 2.647 10.502)" fill="url(#i)" fill-rule="evenodd"/>
            <path d="M65.46 19.286c2.474-.515 5.67-2.061 7.422-3.402.619.825 2.165 4.124 2.165 4.124-.722 1.237-3.917 3.196-6.598 3.711-.515-.619-2.989-4.433-2.989-4.433z"
                  transform="matrix(.72128 0 0 .72128 2.647 10.502)" fill="url(#j)" fill-rule="evenodd"/>
            <path d="M53.24 12.82s8.16-2.766 10.925-.415c-.553 1.66-1.383 2.49-2.904 2.904-1.521-.691.553-3.734-8.02-2.489z"
                  fill="url(#k)" fill-rule="evenodd" transform="matrix(.72128 0 0 .72128 9.86 10.502)"/>
            <path d="M54.485 9.64c10.786-3.32 34.71-5.117 37.337 2.489 1.521 6.084-4.563 13.69-13.69 18.115 7.606-10.095-5.947-22.126-23.647-20.605z"
                  fill="url(#l)" fill-rule="evenodd" transform="matrix(.72128 0 0 .72128 9.86 10.502)"/>
            <path d="M53.118 105.394s12.599 35.072 14.13 36.434c2.725 6.64 23.155 6.47 29.114 4.767-18.558-3.746-28.773-26.56-43.244-41.2z"
                  fill="url(#m)" fill-rule="evenodd" transform="matrix(.72128 0 0 .72128 9.86 10.502)"/>
            <path d="M63.347 14.424c-4.251-.019-9.136.71-14.155 2.231-6.637 2.012-12.281 5.035-16.094 8.362-3.743 3.268-5.748 6.87-4.98 10.098.003.015-.005.03 0 .045.197.79 28.954 76.652 28.963 76.681.695 2.293 2.803 3.89 5.702 4.824 2.81.905 6.432 1.186 10.459.924 2.698-.264 10.933-1.666 12.014-2.21 4.336-1.314 8.438-3.157 11.69-5.136 1.677-1.14 2.761-1.752 4.042-3.023 1.983-1.68 3.56-3.422 4.508-5.184.995-1.85 1.338-3.74.812-5.477L77.29 19.189c-.84-1.535-2.992-3.013-5.378-3.706-2.386-.693-5.356-1.045-8.565-1.06zm0 .901c3.147.014 6.026.356 8.295 1.015 2.268.659 3.88 1.652 4.53 2.84l29.257 77.65c.443 1.46.172 3.074-.744 4.778-.916 1.704-2.468 3.481-4.53 5.184-.79.46-2.66 2.008-3.922 2.75-1.514.855-6.964 3.69-11.225 4.981-3.671 1.007-7.276 1.816-11.21 2.23-4.098.302-8.008-.064-10.744-.945-2.736-.881-4.512-2.316-5.094-4.237l-28.964-76.5c-.747-2.763 1.005-6.14 4.688-9.355 3.684-3.215 9.225-6.224 15.756-8.204 4.94-1.498 9.762-2.205 13.907-2.187z"
                  fill-rule="evenodd"/>
        </svg>

    </defs>
</svg>
