<?xml version="1.0" encoding="UTF-8" standalone="no"?>
<svg
   xmlns:dc="http://purl.org/dc/elements/1.1/"
   xmlns:cc="http://creativecommons.org/ns#"
   xmlns:rdf="http://www.w3.org/1999/02/22-rdf-syntax-ns#"
   xmlns:svg="http://www.w3.org/2000/svg"
   xmlns="http://www.w3.org/2000/svg"
   xmlns:xlink="http://www.w3.org/1999/xlink"
   xmlns:sodipodi="http://sodipodi.sourceforge.net/DTD/sodipodi-0.dtd"
   xmlns:inkscape="http://www.inkscape.org/namespaces/inkscape"
   id="svg-2"
   viewBox="0 0 128 128"
   height="100%"
   width="100%"
   pointer-events="none"
   display="block"
   version="1.1"
   inkscape:version="0.91 r13725"
   sodipodi:docname="battery.svg">
  <metadata
     id="metadata6676">
    <rdf:RDF>
      <cc:Work
         rdf:about="">
        <dc:format>image/svg+xml</dc:format>
        <dc:type
           rdf:resource="http://purl.org/dc/dcmitype/StillImage" />
        <dc:title></dc:title>
      </cc:Work>
    </rdf:RDF>
  </metadata>
  <defs
     id="defs6674">
    <linearGradient
       gradientUnits="userSpaceOnUse"
       gradientTransform="scale(0.81929236,1.2205655)"
       id="linearGradient1873"
       inkscape:collect="always"
       x1="105.24821"
       x2="139.04483"
       xlink:href="#linearGradient1874"
       y1="87.531549"
       y2="68.13968" />
    <linearGradient
       id="linearGradient1874">
      <stop
         id="stop1875"
         offset="0.0000000"
         style="stop-color:#ffffff;stop-opacity:0.0000000;" />
      <stop
         id="stop1877"
         offset="0.50000000"
         style="stop-color:#ffffff;stop-opacity:0.24719101;" />
      <stop
         id="stop1876"
         offset="1.0000000"
         style="stop-color:#ffffff;stop-opacity:0.0000000;" />
    </linearGradient>
    <linearGradient
       gradientUnits="userSpaceOnUse"
       gradientTransform="scale(0.74242991,1.3469285)"
       id="linearGradient1879"
       inkscape:collect="always"
       x1="159.22134"
       x2="138.16479"
       xlink:href="#linearGradient1880"
       y1="13.649529"
       y2="28.712817" />
    <linearGradient
       id="linearGradient1880">
      <stop
         id="stop1881"
         offset="0.0000000"
         style="stop-color:#000000;stop-opacity:1.0000000;" />
      <stop
         id="stop1883"
         offset="1.0000000"
         style="stop-color:#000000;stop-opacity:0.0000000;" />
    </linearGradient>
    <linearGradient
       gradientUnits="userSpaceOnUse"
       gradientTransform="scale(0.96479771,1.0364867)"
       id="linearGradient1885"
       inkscape:collect="always"
       x1="37.100519"
       x2="57.766843"
       xlink:href="#linearGradient1880"
       y1="64.189009"
       y2="55.364545" />
    <linearGradient
       gradientUnits="userSpaceOnUse"
       gradientTransform="scale(1.1881952,0.84161254)"
       id="linearGradient1892"
       inkscape:collect="always"
       x1="30.004028"
       x2="46.991879"
       xlink:href="#linearGradient1864"
       y1="48.29256"
       y2="38.236326" />
    <linearGradient
       id="linearGradient1864">
      <stop
         id="stop1865"
         offset="0.0000000"
         style="stop-color:#ffffff;stop-opacity:1.0000000;" />
      <stop
         id="stop1866"
         offset="1.0000000"
         style="stop-color:#ffffff;stop-opacity:0.0000000;" />
    </linearGradient>
    <linearGradient
       gradientUnits="userSpaceOnUse"
       gradientTransform="scale(1.6994649,0.5884205)"
       id="linearGradient1895"
       inkscape:collect="always"
       x1="35.220662"
       x2="38.929003"
       xlink:href="#linearGradient1864"
       y1="31.992172"
       y2="29.25222" />
    <linearGradient
       gradientUnits="userSpaceOnUse"
       gradientTransform="scale(1.5060779,0.6639763)"
       id="linearGradient1897"
       inkscape:collect="always"
       x1="40.244443"
       x2="44.079405"
       xlink:href="#linearGradient1864"
       y1="37.148447"
       y2="33.451355" />
    <linearGradient
       gradientUnits="userSpaceOnUse"
       gradientTransform="scale(1.1062026,0.90399355)"
       id="linearGradient1899"
       inkscape:collect="always"
       x1="60.063359"
       x2="65.888471"
       xlink:href="#linearGradient1874"
       y1="23.480421"
       y2="20.89794" />
    <linearGradient
       gradientUnits="userSpaceOnUse"
       gradientTransform="scale(1.684253,0.59373503)"
       id="linearGradient1872"
       inkscape:collect="always"
       x1="36.909282"
       x2="33.89451"
       xlink:href="#linearGradient1864"
       y1="19.488885"
       y2="21.841769" />
    <linearGradient
       gradientUnits="userSpaceOnUse"
       gradientTransform="scale(1.2654625,0.7902249)"
       id="linearGradient1871"
       inkscape:collect="always"
       x1="70.862513"
       x2="54.972651"
       xlink:href="#linearGradient1864"
       y1="6.3908208"
       y2="17.524179" />
    <linearGradient
       gradientUnits="userSpaceOnUse"
       gradientTransform="scale(1.0123027,0.98784681)"
       id="linearGradient1875"
       inkscape:collect="always"
       x1="49.75035"
       x2="71.528184"
       xlink:href="#linearGradient1864"
       y1="150.48783"
       y2="129.34454" />
  </defs>
  <sodipodi:namedview
     pagecolor="#ffffff"
     bordercolor="#666666"
     borderopacity="1"
     objecttolerance="10"
     gridtolerance="10"
     guidetolerance="10"
     inkscape:pageopacity="0"
     inkscape:pageshadow="2"
     inkscape:window-width="1280"
     inkscape:window-height="660"
     id="namedview6672"
     showgrid="false"
     inkscape:zoom="1.84375"
     inkscape:cx="64"
     inkscape:cy="64"
     inkscape:window-x="-8"
     inkscape:window-y="-8"
     inkscape:window-maximized="1"
     inkscape:current-layer="svg-2" />
  <path
     fill="#B9F6CA"
     d="M0 0h128v128H0z"
     id="path6656" />
  <path
     d="M38.9 47.4zm.7 0z"
     fill="none"
     id="path6660" />
  <path
     fill="#FFCC80"
     d="M36.3 119.3s.1-.2.2-.3c-.1.1-.2.2-.2.3z"
     id="path6670" />
  <g
     transform="matrix(0.72127572,0,0,0.72127572,9.8598075,10.501815)"
     id="g1905">
    <path
       inkscape:connector-curvature="0"
       d="m 84.09375,6.15625 c -5.820589,-0.025589 -12.533204,0.9695349 -19.4375,3.0625 -18.411457,5.58124 -31.293351,16.922469 -28.75,25.3125 0,0 40.131226,105.82939 40.143382,105.86949 2.54335,8.39003 19.851409,10.08675 38.262868,4.50551 18.41146,-5.58124 31.29334,-16.92247 28.75,-25.3125 L 102.46324,11.823529 C 100.39781,8.0483192 92.906634,6.1949944 84.09375,6.15625 Z"
       id="path1195"
       sodipodi:nodetypes="cccccccc"
       style="fill:#000000;fill-opacity:1;fill-rule:evenodd;stroke:none;stroke-width:1pt;stroke-linecap:butt;stroke-linejoin:miter;stroke-opacity:1"
       transform="translate(-10,0)" />
    <path
       inkscape:connector-curvature="0"
       d="m 75.171876,34.41878 c -18.411457,5.58124 -35.11688,5.745998 -38.455882,0.606617 0,0 9.54299,26.123506 9.555146,26.163606 2.54335,8.39003 18.969057,10.08675 37.380513,4.50551 18.411457,-5.58124 31.293337,-16.92247 28.749997,-25.3125 L 101.98506,12.054545 c -0.59484,8.283614 -7.261829,15.27127 -26.813184,22.364235 z"
       id="path1217"
       sodipodi:nodetypes="ccccccc"
       style="fill:#eca548;fill-opacity:1;fill-rule:evenodd;stroke:none;stroke-width:1pt;stroke-linecap:butt;stroke-linejoin:miter;stroke-opacity:1"
       transform="translate(-10,0)" />
    <path
       inkscape:connector-curvature="0"
       d="m 40.294118,31.764706 c -5.882353,-16.176471 50,-27.9411762 55.882353,-20.294118 7.352939,15.588236 -46.470589,29.705883 -55.882353,20.294118 z"
       id="path1842"
       sodipodi:nodetypes="ccc"
       style="fill:#dcdcdc;fill-opacity:1;fill-rule:evenodd;stroke:none;stroke-width:1pt;stroke-linecap:butt;stroke-linejoin:miter;stroke-opacity:1"
       transform="translate(-10,0)" />
    <path
       inkscape:connector-curvature="0"
       d="M 82.15625,6.6875 C 76.193653,6.9049989 69.88603,7.9375001 64.8125,9.8125 43.930147,15.988971 34.222425,28.023897 36.28125,33.90625 c 4.117647,10 28.409923,4.930147 40.46875,0.8125 C 95.279411,28.54228 103.57721,18.827205 101.8125,12.0625 101.07721,8.2022056 92.093912,6.3250018 82.15625,6.6875 Z m 1.0625,5.09375 c 5.013787,-0.35386 8.85478,0.284926 10.03125,2.34375 4.705886,7.647059 -42.674631,25.588235 -47.96875,15 -2.867647,-6.397059 22.89614,-16.282169 37.9375,-17.34375 z"
       id="path1839"
       style="fill:#eca548;fill-opacity:1;fill-rule:evenodd;stroke:none;stroke-width:1pt;stroke-linecap:butt;stroke-linejoin:miter;stroke-opacity:1"
       transform="translate(-10,0)" />
    <path
       inkscape:connector-curvature="0"
       d="m 103.07857,12.78125 -1.35643,-1.376762 c 0.57983,2.148777 -0.0662,5.98395 -1.22214,8.126762 -1.155968,2.142812 -3.110029,4.270006 -5.65625,6.28125 C 89.751308,29.834988 82.32306,33.379512 74.4375,35.84375 66.55194,38.307988 58.205314,39.703916 51.28125,39.5 44.357186,39.296084 38.288985,37.118574 36.043045,33.443398 l -0.217869,1.331954 c 2.607,4.266002 8.30477,5.76496 15.424824,5.974648 7.120054,0.209688 15.565707,-1.219752 23.5625,-3.71875 7.996793,-2.498998 15.537297,-6.08315 20.8125,-10.25 2.637602,-2.083425 4.7295,-4.30113 6,-6.65625 1.2705,-2.35512 2.12374,-4.860174 1.45357,-7.34375 z"
       id="path1843"
       sodipodi:nodetypes="ccccccccccccc"
       style="fill:#000000;fill-opacity:1;fill-rule:evenodd;stroke:none;stroke-width:1pt;stroke-linecap:butt;stroke-linejoin:miter;stroke-opacity:1"
       transform="translate(-10,0)" />
    <path
       inkscape:connector-curvature="0"
       d="m 81.327499,39.820443 2.398093,6.353727 6.334887,-2.390982 1.080057,2.861602 -6.334887,2.390982 2.398093,6.353727 -2.88832,1.090141 -2.398093,-6.353727 -6.334886,2.390982 -1.080057,-2.861602 6.334886,-2.390982 -2.398093,-6.353727 2.88832,-1.090141"
       id="text1846"
       style="font-style:normal;font-variant:normal;font-weight:bold;font-stretch:normal;font-size:12px;font-family:'Bitstream Vera Sans';writing-mode:lr-tb;text-anchor:start;fill:#000000;fill-opacity:1;stroke:none;stroke-width:1pt;stroke-linecap:butt;stroke-linejoin:miter;stroke-opacity:1"
       transform="translate(-10,0)" />
    <path
       inkscape:connector-curvature="0"
       d="m 121.25356,123.54734 c 2.19829,2.42272 -0.30559,4.28401 -1.34377,6.24809 2.12762,0.52563 5.53986,0.53059 5.12873,3.5752 -2.62484,-0.25271 -5.31896,-1.59308 -7.96059,-1.19604 -1.98731,1.03983 -4.82725,1.97815 -4.38305,-1.29303 3.18593,-0.51317 5.36879,-2.63573 7.00696,-5.3019 0.51724,-0.67744 1.03448,-1.35489 1.55172,-2.03232 z m -6.50261,-2.9437 c 1.6277,4.03662 4.53589,-3.4396 0.75863,-1.47656 -0.94605,0.11616 -1.52771,0.62566 -0.75863,1.47656 z m -2.28301,-0.38478 c -1.98365,1.39858 -5.83381,1.7329 -4.32239,-1.42763 3.25493,-0.57175 7.17613,-3.2278 9.89212,-2.94732 0.9335,2.38705 3.49026,6.23863 0.50427,8.08981 -1.96929,0.49514 -4.25838,-1.51171 -4.92732,1.43076 -1.32758,1.29267 -2.73893,3.70063 -3.30512,0.68513 -0.73859,-2.16405 4.19638,-3.24452 2.15844,-5.83075 z m 1.65711,-13.91981 c 0.52523,2.26713 3.00886,5.23555 2.24169,7.03987 -3.07122,1.73105 -2.08058,-6.22972 -5.0264,-2.81592 0.61677,1.51246 2.70296,4.75958 -0.58126,4.15363 -0.36853,-1.98987 -2.38244,-5.38128 -3.80391,-2.22856 0.83005,1.42742 2.75136,4.9235 -0.45859,4.16258 -0.54952,-2.66133 -4.92642,-7.1463 -0.15175,-7.5027 2.59341,-0.9363 5.18682,-1.8726 7.78022,-2.8089 z m -4.22449,-10.221689 c 0.80244,2.987935 3.64497,6.706419 3.14617,9.228389 -2.81175,1.5392 -1.65946,-4.47145 -4.65056,-2.13645 -2.1726,0.27079 -5.60744,3.26518 -6.89745,1.4461 -1.47591,-3.05639 4.18343,-2.55532 5.94301,-3.94865 4.76512,-0.47271 -2.53034,-3.604574 2.45883,-4.589389 z m -3.87559,-9.377456 c 0.80245,2.987938 3.64497,6.70641 3.14617,9.228385 -2.81175,1.539196 -1.65945,-4.471452 -4.65055,-2.136447 -2.1726,0.270791 -5.607436,3.265173 -6.897442,1.446097 -1.475919,-3.056384 4.183422,-2.555313 5.943002,-3.948644 4.76512,-0.472708 -2.53034,-3.604559 2.45882,-4.589391 z m -9.396248,0.854904 c -0.911273,-1.908012 -1.027887,-4.441103 -3.592078,-4.020494 -2.11698,-1.642661 -0.345897,-3.177357 1.782344,-2.315457 2.895185,0.380249 7.381752,-1.27495 9.213712,0.758921 2.2181,3.635683 -4.237636,5.141023 -5.951884,7.690281 -1.455011,2.177525 -3.024575,1.429624 -2.853602,-1.005912 0.29341,-0.561254 1.003527,-0.634047 1.401508,-1.107339 z m 0.566582,-3.980866 c 0.403261,1.628409 1.2751,3.47547 2.69151,1.365279 4.699506,-2.845071 -1.30923,-0.925708 -2.69151,-1.365279 z m -1.112473,-9.763046 c 2.214483,3.364462 3.229583,-3.997168 -0.114578,-1.601605 -0.765986,0.278803 -0.03066,1.156403 0.114578,1.601605 z m -4.502266,1.722481 c 2.488787,4.189269 4.242251,-4.655595 0.0209,-1.723999 -0.904733,0.263306 -0.365526,1.241887 -0.0209,1.723999 z m 4.692017,0.977814 c -0.59808,5.104384 -7.595949,1.945792 -7.174576,-2.047189 -2.653618,-3.710431 4.341418,-3.388604 6.354003,-4.888266 1.993697,-1.030423 3.593995,-1.472249 3.989305,1.182542 2.402266,2.528843 0.743106,8.524829 -3.168734,5.752909 l 2e-6,4e-6 z"
       id="text1850"
       style="font-style:normal;font-variant:normal;font-weight:bold;font-stretch:normal;font-size:12px;font-family:'Bitstream Vera Sans';writing-mode:lr-tb;text-anchor:start;fill:#ffffff;fill-opacity:1;stroke:none;stroke-width:1pt;stroke-linecap:butt;stroke-linejoin:miter;stroke-opacity:1"
       transform="translate(-10,0)" />
    <path
       inkscape:connector-curvature="0"
       d="m 86.4375,11.03125 c -7.899448,-0.06344 -15.596347,2.214159 -22.976196,4.834748 -5.988173,2.309613 -12.093381,3.793489 -17.046988,8.974033 -1.750793,1.319595 -2.934055,3.992323 -1.060108,5.735579 2.814306,3.152649 7.50667,3.142686 11.396292,2.856409 8.775554,-0.945209 17.192229,-4.045622 25.075379,-7.913189 4.089294,-2.183399 8.413571,-4.423585 11.309898,-8.153218 1.451788,-1.62862 0.813732,-4.170494 -1.154729,-5.023518 -1.673772,-0.958087 -3.64649,-1.227318 -5.543548,-1.310844 z m -3.46875,1.3125 c 3.042926,-0.14376 6.527888,-0.371745 9.077913,1.597547 1.853035,1.983817 -1.236501,4.108763 -2.593447,5.39852 -6.066837,4.61994 -13.183783,7.653934 -20.365966,10.087828 -5.92974,1.821524 -12.193698,3.527393 -18.436532,2.590487 -2.094037,-0.373787 -5.002823,-1.627191 -5.0564,-3.779513 0.261343,-2.132911 2.836077,-4.192298 4.651492,-5.497032 7.730708,-4.663185 16.506291,-7.079767 25.26017,-9.18542 2.459121,-0.556949 4.94822,-1.003492 7.46277,-1.212417 z"
       id="path1886"
       sodipodi:nodetypes="cccccccccccccccccc"
       style="fill:#000000;fill-opacity:1;fill-rule:evenodd;stroke:none;stroke-width:1pt;stroke-linecap:butt;stroke-linejoin:miter;stroke-opacity:1"
       transform="translate(-10,0)" />
    <path
       inkscape:connector-curvature="0"
       d="m 64.125,11.6875 c -5.304168,1.799731 -9.011576,5.003834 -8.28125,7.15625 l 2.378022,5.037294 C 59.044126,25.961355 63.730059,25.965015 68.96875,24.1875 74.272918,22.387769 77.980325,19.183667 77.25,17.03125 77.19523,16.869819 75.08493,12.378606 75.0625,12.3125 74.697337,11.236292 69.913626,9.4434025 64.125,11.6875 Z"
       id="path1856"
       sodipodi:nodetypes="ccccccc"
       style="fill:#c8c8c8;fill-opacity:1;fill-rule:evenodd;stroke:#000000;stroke-width:1pt;stroke-linecap:butt;stroke-linejoin:miter;stroke-opacity:1"
       transform="translate(-10,0)" />
    <path
       inkscape:connector-curvature="0"
       d="m 74.5,11.893574 c -0.276827,1.028215 -1.262607,2.32444 -2.71875,3.325176 -1.456143,1.000736 -3.372069,1.885477 -5.34375,2.5625 -1.971681,0.677023 -3.99386,1.152865 -5.75,1.34375 -1.75614,0.190885 -3.550129,0.259628 -4.462903,-0.693596 l -0.140184,1.228086 c 1.13683,0.538499 2.858006,0.88753 4.728087,0.68426 1.870081,-0.20327 3.976492,-0.669451 6.03125,-1.375 2.054758,-0.705549 4.037057,-1.627435 5.625,-2.71875 1.587943,-1.091315 3.069808,-2.042774 3.21875,-3.875 L 74.5,11.893574 Z"
       id="path1860"
       sodipodi:nodetypes="ccccccccccc"
       style="fill:#000000;fill-opacity:1;fill-rule:evenodd;stroke:none;stroke-width:1pt;stroke-linecap:butt;stroke-linejoin:miter;stroke-opacity:1"
       transform="translate(-10,0)" />
    <path
       inkscape:connector-curvature="0"
       d="m 54.928097,40.666642 c 13.61112,-0.607254 28.008711,-5.348472 39.18955,-12.725466 0.03171,0.140225 41.505303,106.138744 41.470593,106.176474 -1.72398,2.40269 -19.85842,12.95183 -37.227754,13.98944 0,1e-5 -43.432389,-107.440448 -43.432389,-107.440448 z"
       id="path1872"
       sodipodi:nodetypes="ccccc"
       style="fill:url(#linearGradient1873);fill-opacity:1;fill-rule:evenodd;stroke:none;stroke-width:1pt;stroke-linecap:butt;stroke-linejoin:miter;stroke-opacity:1"
       transform="translate(-10,0)" />
    <path
       inkscape:connector-curvature="0"
       d="m 103.27553,15.57899 9.51396,25.882353 c 0.8916,6.018286 -7.26648,14.223103 -12.23224,16.854414 C 99.380778,55.37458 89.300315,30.659454 89.300315,30.659454 93.312506,29.322057 102.15778,22.585085 103.27553,15.57899 Z"
       id="path1878"
       sodipodi:nodetypes="ccccc"
       style="fill:url(#linearGradient1879);fill-opacity:1;fill-rule:evenodd;stroke:none;stroke-width:1pt;stroke-linecap:butt;stroke-linejoin:miter;stroke-opacity:1"
       transform="translate(-10,0)" />
    <path
       inkscape:connector-curvature="0"
       d="m 37.112765,36.098358 9.919028,27.193739 c 4.235091,5.461037 10.810626,6.129736 20.729654,5.572487 0.11145,0.11145 -8.470181,-28.754035 -8.470181,-28.754035 -6.129736,1.003048 -17.60906,0.780148 -22.178501,-4.012191 z"
       id="path1884"
       sodipodi:nodetypes="ccccc"
       style="fill:url(#linearGradient1885);fill-opacity:1;fill-rule:evenodd;stroke:none;stroke-width:1pt;stroke-linecap:butt;stroke-linejoin:miter;stroke-opacity:1"
       transform="translate(-10,0)" />
    <path
       inkscape:connector-curvature="0"
       d="m 49.893893,16.193651 c -2.577164,0.927779 -15.56607,10.308656 -13.710512,17.112368 2.886424,7.628405 22.266696,7.112972 32.678438,4.123462 -6.597539,-2.577164 -21.85435,-5.566674 -18.967926,-21.23583 z"
       id="path1891"
       sodipodi:nodetypes="cccc"
       style="fill:url(#linearGradient1892);fill-opacity:1;fill-rule:evenodd;stroke:none;stroke-width:1pt;stroke-linecap:butt;stroke-linejoin:miter;stroke-opacity:1"
       transform="translate(-10,0)" />
    <path
       inkscape:connector-curvature="0"
       d="m 60.298097,14.240032 c 0,0 -4.21901,1.541273 -3.909751,4.427696 2.474077,2.061731 13.710512,-1.649384 14.535204,-2.98951 -4.857632,0.968004 -8.681885,2.549503 -10.625453,-1.438186 z"
       id="path1893"
       sodipodi:nodetypes="cccc"
       style="fill:url(#linearGradient1895);fill-opacity:1;fill-rule:evenodd;stroke:none;stroke-width:1pt;stroke-linecap:butt;stroke-linejoin:miter;stroke-opacity:1"
       transform="translate(-10,0)" />
    <path
       inkscape:connector-curvature="0"
       d="m 57.316125,20.214027 c 0,0 1.030865,3.195683 2.061731,4.123462 3.711116,1.237038 6.59754,-0.103086 8.453097,-0.515433 -6.803712,-0.309259 -6.803712,-3.29877 -10.514828,-3.608029 z"
       id="path1896"
       sodipodi:nodetypes="cccc"
       style="fill:url(#linearGradient1897);fill-opacity:1;fill-rule:evenodd;stroke:none;stroke-width:1pt;stroke-linecap:butt;stroke-linejoin:miter;stroke-opacity:1"
       transform="translate(-10,0)" />
    <path
       inkscape:connector-curvature="0"
       d="m 65.459963,19.286248 c 2.474077,-0.515433 5.66976,-2.061732 7.422232,-3.401857 0.618519,0.824693 2.164817,4.123462 2.164817,4.123462 -0.721606,1.237039 -3.917288,3.195683 -6.597539,3.711116 -0.515433,-0.618519 -2.98951,-4.432721 -2.98951,-4.432721 z"
       id="path1898"
       sodipodi:nodetypes="ccccc"
       style="fill:url(#linearGradient1899);fill-opacity:1;fill-rule:evenodd;stroke:none;stroke-width:1pt;stroke-linecap:butt;stroke-linejoin:miter;stroke-opacity:1"
       transform="translate(-10,0)" />
    <path
       inkscape:connector-curvature="0"
       d="m 53.240233,12.819972 c 0,0 8.158893,-2.765727 10.924619,-0.414859 -0.553145,1.659436 -1.382863,2.489153 -2.904013,2.904012 -1.52115,-0.691431 0.553145,-3.73373 -8.020606,-2.489153 z"
       id="path1869"
       sodipodi:nodetypes="cccc"
       style="fill:url(#linearGradient1872);fill-opacity:1;fill-rule:evenodd;stroke:none;stroke-width:1pt;stroke-linecap:butt;stroke-linejoin:miter;stroke-opacity:1" />
    <path
       inkscape:connector-curvature="0"
       d="M 54.48481,9.6393867 C 65.271143,6.3205151 89.194675,4.5227926 91.822115,12.12854 93.343266,18.213138 87.258667,25.818885 78.13177,30.244048 85.737517,20.149147 72.185458,8.1182369 54.48481,9.6393867 Z"
       id="path1870"
       sodipodi:nodetypes="cccc"
       style="fill:url(#linearGradient1871);fill-opacity:1;fill-rule:evenodd;stroke:none;stroke-width:1pt;stroke-linecap:butt;stroke-linejoin:miter;stroke-opacity:1" />
    <path
       inkscape:connector-curvature="0"
       d="m 53.118134,105.39439 c 0,0 12.598532,35.07159 14.130786,36.43359 2.724006,6.63976 23.154057,6.46951 29.112823,4.76701 -18.557292,-3.74551 -28.772323,-26.55907 -43.243609,-41.2006 z"
       id="path1873"
       sodipodi:nodetypes="cccc"
       style="fill:url(#linearGradient1875);fill-opacity:1;fill-rule:evenodd;stroke:none;stroke-width:1pt;stroke-linecap:butt;stroke-linejoin:miter;stroke-opacity:1" />
    <path
       inkscape:connector-curvature="0"
       d="m 74.15625,5.4375 c -5.893923,-0.02591 -12.665715,0.9841138 -19.625,3.09375 -9.201063,2.789207 -17.027261,6.98046 -22.3125,11.59375 -5.190286,4.53041 -7.969297,9.524126 -6.90625,14 0.0049,0.02047 -0.005,0.04205 0,0.0625 0.273705,1.094819 40.144175,106.27267 40.15625,106.3125 0.963599,3.1787 3.887094,5.39283 7.90625,6.6875 3.895963,1.25499 8.917592,1.64553 14.5,1.28125 3.740633,-0.36494 15.1583,-2.30991 16.65625,-3.0625 6.01151,-1.82232 11.6993,-4.37749 16.20869,-7.12248 2.32411,-1.57915 3.82711,-2.42841 5.60381,-4.19002 2.74887,-2.33072 4.93633,-4.74434 6.25,-7.1875 1.37868,-2.56407 1.85503,-5.18551 1.125,-7.59375 L 93.487425,12.044895 C 92.32307,9.9166849 89.338841,7.867231 86.03125,6.90625 82.723659,5.945269 78.605464,5.45706 74.15625,5.4375 Z m 0,1.25 c 4.363666,0.019184 8.355297,0.492594 11.5,1.40625 3.144703,0.913656 5.380168,2.290502 6.28125,3.9375 L 132.5,119.6875 c 0.61381,2.02484 0.23935,4.26194 -1.03125,6.625 -1.2706,2.36306 -3.42117,4.82633 -6.28125,7.1875 -1.09482,0.63864 -3.68799,2.7844 -5.4375,3.8125 -2.0984,1.18605 -9.65501,5.11546 -15.5625,6.90625 -5.089202,1.39535 -10.087169,2.517 -15.54131,3.09123 -5.681654,0.4192 -11.102779,-0.088 -14.89619,-1.30998 -3.793411,-1.22195 -6.254866,-3.21079 -7.0625,-5.875 L 26.53125,34.0625 c -1.036141,-3.829777 1.392579,-8.51067 6.5,-12.96875 C 38.138671,16.63567 45.820262,12.4636 54.875,9.71875 61.724295,7.6424562 68.40902,6.6622345 74.15625,6.6875 Z"
       id="path1876"
       sodipodi:nodetypes="ccccccccccccccccccccccccccccccc"
       style="fill:#000000;fill-opacity:1;fill-rule:evenodd;stroke:none;stroke-width:1pt;stroke-linecap:butt;stroke-linejoin:miter;stroke-opacity:1" />
  </g>
</svg>
