<svg xmlns="http://www.w3.org/2000/svg" xmlns:xlink="http://www.w3.org/1999/xlink" viewBox="0 0 128 128" pointer-events="none" display="block">
  <defs>
    <linearGradient gradientUnits="userSpaceOnUse" gradientTransform="scale(.8193 1.22057)" id="d" x1="105.248" x2="139.045" xlink:href="#a" y1="87.532" y2="68.14"/>
    <linearGradient id="a">
      <stop offset="0" stop-color="#fff" stop-opacity="0"/>
      <stop offset=".5" stop-color="#fff" stop-opacity=".247"/>
      <stop offset="1" stop-color="#fff" stop-opacity="0"/>
    </linearGradient>
    <linearGradient gradientUnits="userSpaceOnUse" gradientTransform="scale(.74243 1.34693)" id="e" x1="159.221" x2="138.165" xlink:href="#b" y1="13.65" y2="28.713"/>
    <linearGradient id="b">
      <stop offset="0"/>
      <stop offset="1" stop-opacity="0"/>
    </linearGradient>
    <linearGradient gradientUnits="userSpaceOnUse" gradientTransform="scale(.9648 1.03649)" id="f" x1="37.101" x2="57.767" xlink:href="#b" y1="64.189" y2="55.365"/>
    <linearGradient gradientUnits="userSpaceOnUse" gradientTransform="scale(1.1882 .84161)" id="g" x1="30.004" x2="46.992" xlink:href="#c" y1="48.293" y2="38.236"/>
    <linearGradient id="c">
      <stop offset="0" stop-color="#fff"/>
      <stop offset="1" stop-color="#fff" stop-opacity="0"/>
    </linearGradient>
    <linearGradient gradientUnits="userSpaceOnUse" gradientTransform="scale(1.69946 .58842)" id="h" x1="35.221" x2="38.929" xlink:href="#c" y1="31.992" y2="29.252"/>
    <linearGradient gradientUnits="userSpaceOnUse" gradientTransform="scale(1.50608 .66398)" id="i" x1="40.244" x2="44.079" xlink:href="#c" y1="37.148" y2="33.451"/>
    <linearGradient gradientUnits="userSpaceOnUse" gradientTransform="scale(1.1062 .904)" id="j" x1="60.063" x2="65.888" xlink:href="#a" y1="23.48" y2="20.898"/>
    <linearGradient gradientUnits="userSpaceOnUse" gradientTransform="scale(1.68425 .59374)" id="k" x1="36.909" x2="33.895" xlink:href="#c" y1="19.489" y2="21.842"/>
    <linearGradient gradientUnits="userSpaceOnUse" gradientTransform="scale(1.26546 .79022)" id="l" x1="70.863" x2="54.973" xlink:href="#c" y1="6.391" y2="17.524"/>
    <linearGradient gradientUnits="userSpaceOnUse" gradientTransform="scale(1.0123 .98785)" id="m" x1="49.75" x2="71.528" xlink:href="#c" y1="150.488" y2="129.345"/>
  </defs>
  <path fill="#B9F6CA" d="M0 0h128v128H0z"/>
  <path d="M38.9 47.4zm.7 0z" fill="none"/>
  <path fill="#FFCC80" d="M36.3 119.3s.1-.2.2-.3c-.1.1-.2.2-.2.3z"/>
  <path d="M63.302 14.942c-4.198-.018-9.04.7-14.02 2.21-13.28 4.025-22.571 12.205-20.737 18.256 0 0 28.946 76.333 28.955 76.361 1.834 6.052 14.318 7.276 27.598 3.25 13.28-4.025 22.571-12.206 20.737-18.257L76.55 19.03c-1.49-2.723-6.893-4.06-13.25-4.088z" fill-rule="evenodd"/>
  <path d="M56.867 35.327c-13.28 4.026-25.33 4.145-27.738.438 0 0 6.884 18.842 6.892 18.871 1.835 6.051 13.682 7.275 26.962 3.25C76.263 53.86 85.554 45.68 83.72 39.628l-7.514-20.432c-.429 5.975-5.237 11.015-19.34 16.131z" fill="#eca548" fill-rule="evenodd"/>
  <path d="M31.71 33.413C27.467 21.745 67.774 13.26 72.017 18.775 77.32 30.02 38.499 40.201 31.71 33.413z" fill="#dcdcdc" fill-rule="evenodd"/>
  <path d="M61.904 15.325c-4.3.157-8.85.902-12.51 2.254-15.061 4.455-22.063 13.136-20.578 17.379 2.97 7.212 20.491 3.556 29.189.586 13.365-4.455 19.35-11.463 18.077-16.342-.53-2.784-7.01-4.138-14.178-3.877zM62.671 19c3.616-.255 6.386.206 7.235 1.69 3.394 5.516-30.78 18.457-34.599 10.82-2.068-4.614 16.515-11.744 27.364-12.51z" fill="#eca548" fill-rule="evenodd"/>
  <path d="M76.995 19.72l-.978-.992c.418 1.55-.048 4.316-.882 5.861-.834 1.546-2.243 3.08-4.08 4.53-3.673 2.902-9.03 5.459-14.718 7.236-5.688 1.777-11.708 2.784-16.702 2.637-4.994-.147-9.371-1.717-10.991-4.368l-.157.96c1.88 3.077 5.99 4.159 11.125 4.31 5.136.151 11.228-.88 16.995-2.682 5.768-1.803 11.207-4.388 15.012-7.394 1.902-1.502 3.411-3.102 4.328-4.8.916-1.7 1.531-3.506 1.048-5.297z" fill-rule="evenodd"/>
  <path d="M61.307 39.223l1.73 4.583 4.568-1.724.78 2.064-4.57 1.724 1.73 4.583-2.083.786-1.73-4.583-4.57 1.725-.778-2.064 4.569-1.725-1.73-4.582 2.084-.787" font-weight="700" font-size="12" font-family="Bitstream Vera Sans"/>
  <path d="M90.104 99.614c1.586 1.747-.22 3.09-.969 4.506 1.535.38 3.996.383 3.7 2.579-1.894-.182-3.837-1.15-5.742-.863-1.434.75-3.482 1.427-3.162-.932 2.298-.37 3.873-1.902 5.054-3.825l1.12-1.465zm-4.69-2.124c1.174 2.912 3.272-2.48.547-1.065-.682.084-1.102.452-.547 1.065zm-1.647-.277c-1.43 1.009-4.207 1.25-3.117-1.03 2.348-.412 5.176-2.328 7.135-2.126.673 1.722 2.517 4.5.363 5.835-1.42.357-3.071-1.09-3.553 1.032-.958.933-1.976 2.67-2.384.494-.533-1.56 3.026-2.34 1.556-4.205zm1.196-10.04c.379 1.635 2.17 3.776 1.617 5.077-2.216 1.249-1.501-4.493-3.626-2.03.445 1.09 1.95 3.432-.42 2.995-.265-1.435-1.718-3.881-2.743-1.607.599 1.03 1.985 3.551-.33 3.002-.397-1.92-3.554-5.154-.11-5.411l5.612-2.026zM81.916 79.8c.578 2.155 2.629 4.837 2.269 6.656-2.028 1.11-1.197-3.225-3.354-1.54-1.567.195-4.045 2.354-4.975 1.042-1.065-2.204 3.017-1.843 4.286-2.848 3.437-.34-1.825-2.6 1.774-3.31zm-2.796-6.764c.58 2.155 2.63 4.838 2.27 6.657-2.029 1.11-1.197-3.226-3.355-1.541-1.567.195-4.044 2.355-4.975 1.043-1.064-2.205 3.018-1.843 4.287-2.848 3.437-.341-1.825-2.6 1.773-3.31zm-6.777.617c-.657-1.376-.741-3.203-2.59-2.9-1.528-1.185-.25-2.292 1.285-1.67 2.088.274 5.324-.92 6.645.547 1.6 2.623-3.056 3.708-4.293 5.547-1.05 1.57-2.181 1.031-2.058-.725.212-.405.724-.458 1.011-.799zm.409-2.871c.29 1.174.92 2.506 1.941.984 3.39-2.052-.944-.667-1.941-.984zm-.803-7.042c1.598 2.427 2.33-2.883-.082-1.155-.553.2-.022.834.082 1.155zm-3.247 1.242c1.795 3.022 3.06-3.358.015-1.243-.653.19-.264.895-.015 1.243zm3.384.705c-.431 3.682-5.479 1.404-5.175-1.476-1.914-2.676 3.132-2.444 4.583-3.526 1.438-.743 2.593-1.062 2.878.853 1.732 1.824.536 6.149-2.286 4.15z" font-weight="700" font-size="12" font-family="Bitstream Vera Sans" fill="#fff"/>
  <path d="M64.992 18.458c-5.697-.045-11.249 1.597-16.572 3.488-4.319 1.665-8.723 2.736-12.295 6.472-1.263.952-2.117 2.88-.765 4.137 2.03 2.274 5.414 2.267 8.22 2.06 6.33-.681 12.4-2.917 18.086-5.707 2.95-1.575 6.069-3.19 8.158-5.88 1.047-1.175.587-3.009-.833-3.624-1.208-.691-2.63-.885-3.999-.946zm-2.502.947c2.195-.104 4.709-.268 6.548 1.152 1.337 1.431-.892 2.964-1.87 3.894-4.376 3.332-9.51 5.52-14.69 7.276-4.277 1.314-8.795 2.544-13.298 1.869-1.51-.27-3.608-1.174-3.647-2.726.189-1.539 2.046-3.024 3.355-3.965 5.576-3.364 11.906-5.107 18.22-6.625 1.773-.402 3.569-.724 5.382-.875z" fill-rule="evenodd"/>
  <path d="M48.899 18.932c-3.826 1.298-6.5 3.609-5.973 5.161l1.715 3.634c.593 1.5 3.973 1.503 7.752.22 3.825-1.297 6.5-3.608 5.973-5.161-.04-.116-1.562-3.356-1.578-3.403-.264-.777-3.714-2.07-7.89-.451z" fill="#c8c8c8" fill-rule="evenodd" stroke="#000" stroke-width=".72128pt"/>
  <path d="M56.382 19.08c-.2.742-.91 1.677-1.96 2.399-1.051.722-2.433 1.36-3.855 1.848-1.422.488-2.88.832-4.148.97-1.266.137-2.56.186-3.219-.501l-.1.886c.82.388 2.06.64 3.41.493a20.541 20.541 0 004.35-.991c1.482-.51 2.912-1.174 4.057-1.961 1.145-.788 2.214-1.474 2.322-2.795l-.857-.348z" fill-rule="evenodd"/>
  <path d="M54.928 40.667c13.611-.608 28.009-5.349 39.19-12.726.031.14 41.505 106.139 41.47 106.177-1.724 2.402-19.858 12.951-37.228 13.99L54.928 40.666z" transform="matrix(.72128 0 0 .72128 2.647 10.502)" fill="url(#d)" fill-rule="evenodd"/>
  <path d="M103.276 15.579l9.513 25.882c.892 6.019-7.266 14.223-12.232 16.855C99.381 55.375 89.3 30.659 89.3 30.659c4.013-1.337 12.858-8.074 13.976-15.08z" transform="matrix(.72128 0 0 .72128 2.647 10.502)" fill="url(#e)" fill-rule="evenodd"/>
  <path d="M37.113 36.098l9.919 27.194c4.235 5.461 10.81 6.13 20.73 5.573.11.111-8.47-28.754-8.47-28.754-6.13 1.003-17.61.78-22.18-4.013z" transform="matrix(.72128 0 0 .72128 2.647 10.502)" fill="url(#f)" fill-rule="evenodd"/>
  <path d="M49.894 16.194c-2.577.927-15.566 10.308-13.71 17.112 2.886 7.628 22.266 7.113 32.678 4.123-6.598-2.577-21.855-5.566-18.968-21.235z" transform="matrix(.72128 0 0 .72128 2.647 10.502)" fill="url(#g)" fill-rule="evenodd"/>
  <path d="M60.298 14.24s-4.219 1.541-3.91 4.428c2.474 2.061 13.71-1.65 14.536-2.99-4.858.968-8.682 2.55-10.626-1.438z" transform="matrix(.72128 0 0 .72128 2.647 10.502)" fill="url(#h)" fill-rule="evenodd"/>
  <path d="M57.316 20.214s1.031 3.196 2.062 4.123c3.711 1.238 6.597-.103 8.453-.515-6.804-.31-6.804-3.299-10.515-3.608z" transform="matrix(.72128 0 0 .72128 2.647 10.502)" fill="url(#i)" fill-rule="evenodd"/>
  <path d="M65.46 19.286c2.474-.515 5.67-2.061 7.422-3.402.619.825 2.165 4.124 2.165 4.124-.722 1.237-3.917 3.196-6.598 3.711-.515-.619-2.989-4.433-2.989-4.433z" transform="matrix(.72128 0 0 .72128 2.647 10.502)" fill="url(#j)" fill-rule="evenodd"/>
  <path d="M53.24 12.82s8.16-2.766 10.925-.415c-.553 1.66-1.383 2.49-2.904 2.904-1.521-.691.553-3.734-8.02-2.489z" fill="url(#k)" fill-rule="evenodd" transform="matrix(.72128 0 0 .72128 9.86 10.502)"/>
  <path d="M54.485 9.64c10.786-3.32 34.71-5.117 37.337 2.489 1.521 6.084-4.563 13.69-13.69 18.115 7.606-10.095-5.947-22.126-23.647-20.605z" fill="url(#l)" fill-rule="evenodd" transform="matrix(.72128 0 0 .72128 9.86 10.502)"/>
  <path d="M53.118 105.394s12.599 35.072 14.13 36.434c2.725 6.64 23.155 6.47 29.114 4.767-18.558-3.746-28.773-26.56-43.244-41.2z" fill="url(#m)" fill-rule="evenodd" transform="matrix(.72128 0 0 .72128 9.86 10.502)"/>
  <path d="M63.347 14.424c-4.251-.019-9.136.71-14.155 2.231-6.637 2.012-12.281 5.035-16.094 8.362-3.743 3.268-5.748 6.87-4.98 10.098.003.015-.005.03 0 .045.197.79 28.954 76.652 28.963 76.681.695 2.293 2.803 3.89 5.702 4.824 2.81.905 6.432 1.186 10.459.924 2.698-.264 10.933-1.666 12.014-2.21 4.336-1.314 8.438-3.157 11.69-5.136 1.677-1.14 2.761-1.752 4.042-3.023 1.983-1.68 3.56-3.422 4.508-5.184.995-1.85 1.338-3.74.812-5.477L77.29 19.189c-.84-1.535-2.992-3.013-5.378-3.706-2.386-.693-5.356-1.045-8.565-1.06zm0 .901c3.147.014 6.026.356 8.295 1.015 2.268.659 3.88 1.652 4.53 2.84l29.257 77.65c.443 1.46.172 3.074-.744 4.778-.916 1.704-2.468 3.481-4.53 5.184-.79.46-2.66 2.008-3.922 2.75-1.514.855-6.964 3.69-11.225 4.981-3.671 1.007-7.276 1.816-11.21 2.23-4.098.302-8.008-.064-10.744-.945-2.736-.881-4.512-2.316-5.094-4.237l-28.964-76.5c-.747-2.763 1.005-6.14 4.688-9.355 3.684-3.215 9.225-6.224 15.756-8.204 4.94-1.498 9.762-2.205 13.907-2.187z" fill-rule="evenodd"/>
</svg>
