<?xml version="1.0" ?><svg data-name="Layer 1" id="Layer_1" viewBox="0 0 512 512" xmlns="http://www.w3.org/2000/svg"><defs><style>.cls-1{fill:#fff;}.cls-2{fill:#d32f2f;}.cls-3{fill:#e5e5e5;}.cls-4{fill:#bd2a2a;}.cls-5{fill:#333;}</style></defs><title/><g data-name="Layer 2" id="Layer_2"><g data-name="Layer 1-2" id="Layer_1-2"><path class="cls-1" d="M193.27,505a48.85,48.85,0,0,1-48.77-48.77V214.88a76.37,76.37,0,0,1,5.21-27.79l39.55-101.8a9.52,9.52,0,0,0-2.33-10.13,20.09,20.09,0,0,1-3.25-4.27v-.08l-.32-.59-.08-.16-.29-.59-.08-.17c-.18-.39-.34-.77-.48-1.15l-.1-.15-.16-.46-.12-.37-.15-.47-.11-.4a7,7,0,0,1-2.47-5.3V30.67A23.73,23.73,0,0,1,203,7H309a23.73,23.73,0,0,1,23.7,23.7V61a7,7,0,0,1-2.46,5.32l-.11.39-.14.47-.06.18c-.07.21-.15.43-.23.65h0a20.1,20.1,0,0,1-.87,2l-.09.18-.33.61v.05A20.12,20.12,0,0,1,327,73.12l-.08.1q-.33.42-.69.84l-.16.19c-.32.36-.58.64-.85.91a9.52,9.52,0,0,0-2.32,10.13l39.58,101.8a76.37,76.37,0,0,1,5.07,27.79V456.23A48.85,48.85,0,0,1,318.7,505Z"/><path class="cls-2" d="M355.83,189.62,316.25,87.82a16.44,16.44,0,0,1,3.89-17.58c.19-.19.37-.38.54-.58l.12-.14q.24-.28.47-.58h0a13.09,13.09,0,0,0,1-1.49h0l.23-.45.05-.1h0a13,13,0,0,0,.58-1.31h0l.15-.44V65h0l.09-.3h0v-.15a2,2,0,0,1,.11-.4h0a1.89,1.89,0,0,1,.09-.38h0v-.23h0a.61.61,0,0,1,.05-.29,7.13,7.13,0,0,1,.11-.77v-.07h0v-.22h0V61h1.74V30.67a16.73,16.73,0,0,0-16.73-16.73h-106A16.73,16.73,0,0,0,186.3,30.67V61H188v1.44a1,1,0,0,0,0,.39V63a1.58,1.58,0,0,0,.09.52v.23a1.75,1.75,0,0,0,.09.38l.07.27.08.28.09.3.08.23.11.32v.06q.15.4.33.79v.1l.18.37.29.11.2.38v.05a13.12,13.12,0,0,0,2.13,2.8,16.44,16.44,0,0,1,3.89,17.58L156.18,189.62a69.71,69.71,0,0,0-4.74,25.26V456.23a41.82,41.82,0,0,0,41.82,41.82H318.74a41.82,41.82,0,0,0,41.82-41.82h0V214.88A69.71,69.71,0,0,0,355.83,189.62Z"/><path class="cls-1" d="M316.25,87.82a16.44,16.44,0,0,1,3.89-17.58A13,13,0,0,0,324,61h0a13.07,13.07,0,0,0-13.06-13.08H201.11A13.07,13.07,0,0,0,188,61h0a13,13,0,0,0,3.83,9.24,16.44,16.44,0,0,1,3.89,17.58l-39.58,101.8a69.71,69.71,0,0,0-4.74,25.26V456.23a41.82,41.82,0,0,0,41.82,41.82H318.74a41.82,41.82,0,0,0,41.82-41.82h0V214.88a69.71,69.71,0,0,0-4.74-25.26Z"/><path class="cls-3" d="M355.83,189.62,316.25,87.82a16.44,16.44,0,0,1,3.89-17.58,13.12,13.12,0,0,0,2.13-2.8v-.05l.23-.39.06-.11.18-.37v-.1q.18-.39.33-.79v-.06l.11-.32.08-.23.09-.3.08-.28.07-.27a1.89,1.89,0,0,1,.09-.38v-.23q.05-.26.09-.52v-.21a1,1,0,0,1,.05-.39V61h0V59.67a1.63,1.63,0,0,0-.07-.53V59a3.36,3.36,0,0,0-.11-.62h0a13,13,0,0,0-.75-2.44h0a13.07,13.07,0,0,0-12.06-8H288.59a13.07,13.07,0,0,1,12.06,8H189.05a13,13,0,0,0-1,5h0a13,13,0,0,0,2.45,7.67H299.17a13.14,13.14,0,0,1-1.34,1.57,16.44,16.44,0,0,0-3.89,17.58L333.5,189.62a69.71,69.71,0,0,1,4.74,25.26V456.23a41.82,41.82,0,0,1-41.82,41.82h22.31a41.82,41.82,0,0,0,41.82-41.82h0V214.88A69.71,69.71,0,0,0,355.83,189.62Z"/><rect class="cls-2" height="197.58" width="209.12" x="151.44" y="214.35"/><rect class="cls-4" height="197.58" width="34.48" x="326.09" y="214.35"/><path class="cls-2" d="M203,13.94H309a16.73,16.73,0,0,1,16.73,16.73V61H186.3V30.67A16.73,16.73,0,0,1,203,13.94Z"/><rect class="cls-4" height="12.2" width="139.42" x="186.3" y="48.8"/><path class="cls-5" d="M309,13.94a16.73,16.73,0,0,1,16.73,16.73V61H324v1.18h0v.22h0v.07a4.93,4.93,0,0,1-.11.77.59.59,0,0,1-.05.29h0v.23h0a1.54,1.54,0,0,1-.09.37h0a1.4,1.4,0,0,1-.11.4v.15h0l-.09.3h0v.11a1.53,1.53,0,0,1-.15.44h0a13,13,0,0,1-.58,1.31h0l-.29.16-.21.39h0a13.1,13.1,0,0,1-1,1.49h0q-.23.3-.47.58l-.12.14c-.18.2-.36.4-.54.58a16.44,16.44,0,0,0-3.89,17.58l39.58,101.79a69.71,69.71,0,0,1,4.74,25.26V456.23a41.82,41.82,0,0,1-41.82,41.82H193.27a41.82,41.82,0,0,1-41.82-41.82h0V214.88a69.71,69.71,0,0,1,4.74-25.26l39.57-101.8a16.44,16.44,0,0,0-3.89-17.58,13.12,13.12,0,0,1-2.13-2.8v-.05L189.5,67l-.06-.11-.18-.37v-.1q-.18-.39-.33-.79v-.06l-.11-.32-.15-.25-.09-.3-.08-.26-.07-.27a1.66,1.66,0,0,0-.09-.37v-.23q0-.26-.09-.52v-.21a1,1,0,0,0,0-.39V61h-1.9V30.67A16.73,16.73,0,0,1,203,13.94H309M309,0H203a30.71,30.71,0,0,0-30.68,30.67V61a13.89,13.89,0,0,0,3.28,9l.17.48.09.23c.19.5.4,1,.63,1.49l.12.27c.15.31.28.58.37.75l.12.24.42.78.1.17A27,27,0,0,0,182,80.12a2.57,2.57,0,0,1,.76,2.67L143.19,184.56a83.32,83.32,0,0,0-5.69,30.32V456.23A55.73,55.73,0,0,0,193.19,512H318.74a55.73,55.73,0,0,0,55.76-55.7s0,0,0-.07V214.88a83.32,83.32,0,0,0-5.69-30.31L329.24,82.77A2.57,2.57,0,0,1,330,80.1c.37-.37.74-.76,1.13-1.2l.25-.29c.31-.36.62-.74.91-1.11l.14-.18a27.15,27.15,0,0,0,2-3h0v-.08c.14-.26.29-.52.43-.8l.11-.2v-.06a27.07,27.07,0,0,0,1.14-2.58v-.11h0l.17-.48a13.89,13.89,0,0,0,3.28-9V30.67A30.71,30.71,0,0,0,309,0Z"/></g></g></svg>