<?xml version="1.0" ?><svg data-name="Layer 1" id="Layer_1" viewBox="0 0 512 512" xmlns="http://www.w3.org/2000/svg"><defs><style>.cls-1{fill:#3d7ce5;}.cls-2{fill:#366ecc;}.cls-3{fill:#69a1ff;}.cls-4{fill:#448aff;}.cls-5{fill:#333;}</style></defs><title/><g id="bottle"><path class="cls-1" d="M175.85,503.81a38.43,38.43,0,0,1-27.56-11.69,39.28,39.28,0,0,1-11.4-27.66V207.33a63.61,63.61,0,0,1,11-35.65l59.68-88.39v-56a19.33,19.33,0,0,1,19.27-19.1h58.31a19.33,19.33,0,0,1,19.29,19.12v56l59.69,88.41a63.58,63.58,0,0,1,11,35.6V464.46a39.28,39.28,0,0,1-11.4,27.66,38.43,38.43,0,0,1-27.56,11.69Z"/><path class="cls-2" d="M296.15,85.65h-80.3l-61.19,90.63a55.62,55.62,0,0,0-9.57,31.05V464.46c0,16.9,13.86,31.16,30.76,31.16h160.3c16.9,0,30.78-14.26,30.78-31.16V207.33a55.62,55.62,0,0,0-9.58-31Z"/><path class="cls-3" d="M327.4,176.28l-61.2-90.64h.1V27.38a11.09,11.09,0,0,0-11.1-11H226.85a11.09,11.09,0,0,0-11.1,11V85.65h.1l-61.19,90.63a55.62,55.62,0,0,0-9.58,31.05V464.46c0,16.9,13.87,31.16,30.77,31.16H306.21c16.9,0,30.77-14.26,30.77-31.16V207.33A55.62,55.62,0,0,0,327.4,176.28Z"/><path class="cls-4" d="M226.85,16.38h58.3c6.09,0,11,6.15,11.1,13.79V85.65h-80.5V30.17C215.8,22.53,220.76,16.37,226.85,16.38Z"/><rect class="cls-1" height="14.04" width="80.5" x="215.75" y="71.61"/><rect class="cls-4" height="200.31" width="221.84" x="145.08" y="219.03"/><circle class="cls-2" cx="256" cy="319.18" r="58.5"/><path class="cls-3" d="M256,382.36a63.18,63.18,0,1,1,63.18-63.18h0A63.25,63.25,0,0,1,256,382.36Zm0-117a53.82,53.82,0,1,0,53.82,53.82A53.82,53.82,0,0,0,256,265.36Z"/><rect class="cls-1" height="200.31" width="29.96" x="336.97" y="219.03"/><path class="cls-5" d="M285.16,16.38a11.09,11.09,0,0,1,11.09,11V85.65h-.1l61.2,90.64a55.62,55.62,0,0,1,9.58,31V464.46c0,16.9-13.87,31.16-30.77,31.16H175.85c-16.9,0-30.77-14.26-30.77-31.16V207.33a55.62,55.62,0,0,1,9.58-31.05l61.19-90.63h-.1V27.38a11.09,11.09,0,0,1,11.09-11h58.32m0-16.38H226.85a27.47,27.47,0,0,0-27.48,27.25V80.79l-58.27,86.3h0a71.75,71.75,0,0,0-12.4,40.2V464.46a47.43,47.43,0,0,0,13.74,33.4A46.55,46.55,0,0,0,175.85,512h160.3a46.55,46.55,0,0,0,33.4-14.14,47.42,47.42,0,0,0,13.74-33.4V207.28a71.75,71.75,0,0,0-12.38-40.16h0L312.63,80.79V27.25A27.47,27.47,0,0,0,285.16,0Z"/></g></svg>