<svg width="690.3525634765625px" height="124.01875610351563px" xmlns="http://www.w3.org/2000/svg" viewBox="-95.17628173828126 12.990621948242186 690.3525634765625 124.01875610351563" style="background:#444" preserveAspectRatio="xMidYMid"><defs><filter id="editing-crystal" x="-100%" y="-100%" width="300%" height="300%"><feMorphology operator="dilate" radius="2" in="SourceGraphic" result="border"></feMorphology><feFlood flood-color="#fff" result="black"></feFlood><feMorphology operator="dilate" radius="2" in="SourceGraphic" result="erode"></feMorphology><feGaussianBlur in="erode" stdDeviation="4" result="blur"></feGaussianBlur><feOffset in="blur" dx="2" dy="2" result="offset"></feOffset><feComposite operator="atop" in="offset" in2="black" result="merge"></feComposite><feComposite operator="in" in="merge" in2="SourceGraphic" result="inner-shadow"></feComposite><feGaussianBlur in="SourceGraphic" stdDeviation="2.5" result="shadow1"></feGaussianBlur><feOffset in="shadow1" dx="0" dy="5" result="shadow"></feOffset><feSpecularLighting in="SourceGraphic" result="specular" surfaceScale="1.5" specularConstant="100" specularExponent="10" lighting-color="#fff"><fePointLight x="250" y="-300" z="-400"></fePointLight></feSpecularLighting><feGaussianBlur in="specular" stdDeviation="1" result="specular2"></feGaussianBlur><feComposite operator="in" in="specular2" in2="SourceAlpha" result="specular3"></feComposite><feMerge result="merge"><feMergeNode in="border"></feMergeNode><feMergeNode in="inner-shadow"></feMergeNode><feMergeNode in="specular3"></feMergeNode></feMerge><feComponentTransfer in="merge" result="final"><feFuncA type="linear" slope="0.9" intercept="0"></feFuncA></feComponentTransfer><feMerge><feMergeNode in="shadow"></feMergeNode><feMergeNode in="final"></feMergeNode></feMerge></filter></defs><g filter="url(#editing-crystal)"><g transform="translate(2.9199981689453125, 97.74093818664551)"><path d="M5.75-6.41L5.75-38.41L5.75-38.41Q5.75-39.72 6.25-40.89L6.25-40.89L6.25-40.89Q6.75-42.06 7.63-42.92L7.63-42.92L7.63-42.92Q8.50-43.78 9.67-44.30L9.67-44.30L9.67-44.30Q10.84-44.81 12.16-44.81L12.16-44.81L36.47-44.81L36.47-44.81Q37.78-44.81 38.95-44.30L38.95-44.30L38.95-44.30Q40.13-43.78 41-42.92L41-42.92L41-42.92Q41.88-42.06 42.38-40.89L42.38-40.89L42.38-40.89Q42.88-39.72 42.88-38.41L42.88-38.41L42.88-32.63L36.47-32.63L36.47-38.41L12.16-38.41L12.16-6.41L36.47-6.41L36.47-12.16L42.88-12.16L42.88-6.41L42.88-6.41Q42.88-5.09 42.38-3.92L42.38-3.92L42.38-3.92Q41.88-2.75 41-1.88L41-1.88L41-1.88Q40.13-1 38.95-0.50L38.95-0.50L38.95-0.50Q37.78 0 36.47 0L36.47 0L12.16 0L12.16 0Q10.84 0 9.67-0.50L9.67-0.50L9.67-0.50Q8.50-1 7.63-1.88L7.63-1.88L7.63-1.88Q6.75-2.75 6.25-3.92L6.25-3.92L6.25-3.92Q5.75-5.09 5.75-6.41L5.75-6.41ZM53.13-44.81L59.53-44.81L59.53 0L53.13 0L53.13-44.81ZM67.19-38.41L67.19-44.81L103.03-44.81L103.03-38.41L88.31-38.41L88.31 0L81.91 0L81.91-38.41L67.19-38.41ZM106.25-44.81L113.69-44.81L126.72-23.88L139.78-44.81L147.22-44.81L129.94-17.78L129.94 0L123.53 0L123.53-17.78L106.25-44.81ZM173.44-6.41L173.44-38.41L173.44-38.41Q173.44-39.72 173.94-40.89L173.94-40.89L173.94-40.89Q174.44-42.06 175.31-42.92L175.31-42.92L175.31-42.92Q176.19-43.78 177.36-44.30L177.36-44.30L177.36-44.30Q178.53-44.81 179.84-44.81L179.84-44.81L204.16-44.81L204.16-44.81Q205.47-44.81 206.64-44.30L206.64-44.30L206.64-44.30Q207.81-43.78 208.69-42.92L208.69-42.92L208.69-42.92Q209.56-42.06 210.06-40.89L210.06-40.89L210.06-40.89Q210.56-39.72 210.56-38.41L210.56-38.41L210.56-32.63L204.16-32.63L204.16-38.41L179.84-38.41L179.84-6.41L204.16-6.41L204.16-12.16L210.56-12.16L210.56-6.41L210.56-6.41Q210.56-5.09 210.06-3.92L210.06-3.92L210.06-3.92Q209.56-2.75 208.69-1.88L208.69-1.88L208.69-1.88Q207.81-1 206.64-0.50L206.64-0.50L206.64-0.50Q205.47 0 204.16 0L204.16 0L179.84 0L179.84 0Q178.53 0 177.36-0.50L177.36-0.50L177.36-0.50Q176.19-1 175.31-1.88L175.31-1.88L175.31-1.88Q174.44-2.75 173.94-3.92L173.94-3.92L173.94-3.92Q173.44-5.09 173.44-6.41L173.44-6.41ZM252.88-44.81L259.28-44.81L259.28 0L252.88 0L252.88-19.19L227.22-19.19L227.22 0L220.81 0L220.81-44.81L227.22-44.81L227.22-25.59L252.88-25.59L252.88-44.81ZM284.22-44.81L290.63-44.81L307.91 0L301.50 0L297.53-10.31L277.31-10.31L273.34 0L266.94 0L284.22-44.81ZM287.44-36.47L279.75-16.72L295.06-16.72L287.44-36.47ZM351-33.91L351-28.81L351-28.81Q351-19.44 343-18.13L343-18.13L351.44 0L344.34 0L336.03-17.91L322-17.91L322 0L315.59 0L315.59-44.81L340.13-44.81L340.13-44.81Q351-44.81 351-33.91L351-33.91ZM322-38.41L322-24.31L339.78-24.31L339.78-24.31Q342.34-24.31 343.47-25.44L343.47-25.44L343.47-25.44Q344.59-26.56 344.59-29.13L344.59-29.13L344.59-33.59L344.59-33.59Q344.59-36.16 343.47-37.28L343.47-37.28L343.47-37.28Q342.34-38.41 339.78-38.41L339.78-38.41L322-38.41ZM361.69-6.41L361.69-38.41L361.69-38.41Q361.69-39.72 362.19-40.89L362.19-40.89L362.19-40.89Q362.69-42.06 363.56-42.92L363.56-42.92L363.56-42.92Q364.44-43.78 365.61-44.30L365.61-44.30L365.61-44.30Q366.78-44.81 368.09-44.81L368.09-44.81L392.41-44.81L392.41-44.81Q393.72-44.81 394.89-44.30L394.89-44.30L394.89-44.30Q396.06-43.78 396.94-42.92L396.94-42.92L396.94-42.92Q397.81-42.06 398.31-40.89L398.31-40.89L398.31-40.89Q398.81-39.72 398.81-38.41L398.81-38.41L398.81-32.63L392.41-32.63L392.41-38.41L368.09-38.41L368.09-6.41L392.41-6.41L392.41-17.28L380.25-17.28L380.25-23.69L398.81-23.69L398.81-6.41L398.81-6.41Q398.81-5.09 398.31-3.92L398.31-3.92L398.31-3.92Q397.81-2.75 396.94-1.88L396.94-1.88L396.94-1.88Q396.06-1 394.89-0.50L394.89-0.50L394.89-0.50Q393.72 0 392.41 0L392.41 0L368.09 0L368.09 0Q366.78 0 365.61-0.50L365.61-0.50L365.61-0.50Q364.44-1 363.56-1.88L363.56-1.88L363.56-1.88Q362.69-2.75 362.19-3.92L362.19-3.92L362.19-3.92Q361.69-5.09 361.69-6.41L361.69-6.41ZM410.31 0L410.31-44.81L442.97-44.81L442.97-38.41L416.72-38.41L416.72-25.59L439.13-25.59L439.13-19.19L416.72-19.19L416.72-6.41L442.97-6.41L442.97 0L410.31 0ZM487.97-33.91L487.97-28.81L487.97-28.81Q487.97-19.44 479.97-18.13L479.97-18.13L488.41 0L481.31 0L473-17.91L458.97-17.91L458.97 0L452.56 0L452.56-44.81L477.09-44.81L477.09-44.81Q487.97-44.81 487.97-33.91L487.97-33.91ZM458.97-38.41L458.97-24.31L476.75-24.31L476.75-24.31Q479.31-24.31 480.44-25.44L480.44-25.44L480.44-25.44Q481.56-26.56 481.56-29.13L481.56-29.13L481.56-33.59L481.56-33.59Q481.56-36.16 480.44-37.28L480.44-37.28L480.44-37.28Q479.31-38.41 476.75-38.41L476.75-38.41L458.97-38.41Z" fill="#000000" stroke="#88e0eb" stroke-width="1.5"></path></g></g><style>text {
  font-size: 64px;
  font-family: Arial Black;
  dominant-baseline: central;
  text-anchor: middle;
}</style></svg>