<?xml version="1.0" ?><!DOCTYPE svg  PUBLIC '-//W3C//DTD SVG 1.0//EN'  'http://www.w3.org/TR/2001/REC-SVG-20010904/DTD/svg10.dtd'><svg enable-background="new 0 0 72 72" height="72px" id="Layer_1" version="1.0" viewBox="0 0 72 72" width="72px" xml:space="preserve" xmlns="http://www.w3.org/2000/svg" xmlns:xlink="http://www.w3.org/1999/xlink"><g><path d="M36.992,15.664c-11.65,0-21.097,9.444-21.097,21.096c0,11.648,9.445,21.096,21.097,21.096   c11.649,0,21.097-9.445,21.097-21.096C58.088,25.108,48.642,15.664,36.992,15.664" fill="#F26C21"/><path d="M48.154,40.689c-0.624-5.152-0.672-6.64-0.624-8.07c0.048-1.431,0.959-4.922,0.624-6.01   c-0.336-1.088-1.871-2.633-2.159-2.633s-2.014-0.744-2.35,0.229c-0.336,0.974-0.672,2.062-0.816,3.376   c-0.143,1.317-0.574,2.691-1.149,2.748c-0.575,0.058-1.007,0.344-1.487,0.457c-0.479,0.115,0.191,0.573-1.822,0.688   c-2.015,0.114-2.638,0.286-3.933-0.172s-2.352,0.057-2.11-0.859c0.239-0.915,0.527-1.888,0.671-2.117   c0.146-0.229,0.527-2.003,0.575-2.231l0.048-0.23c0,0-3.549-6.695-6.091-1.429c-2.542,5.265-1.056,8.584-1.056,8.584   s0.479,3.377-0.384,6.869c-0.863,3.49-0.432,5.779-0.191,6.752c0.24,0.975,3.742,4.979,6.331,5.723   c2.59,0.744,9.209,2.404,10.888,1.434c1.68-0.973,4.941-7.154,4.941-7.611C48.059,45.725,48.777,45.84,48.154,40.689 M31.127,28.44   c-0.143,0.618-0.769,3.034-1.584,3.32c-0.814,0.286-0.814-3.377-1.104-5.037c-0.287-1.659,1.631-1.888,1.631-1.888   S31.846,25.293,31.127,28.44 M46.008,29.813c-0.094,0.745-0.5,3.659-1.031,4.004s-0.531-4.072-0.719-6.074   c-0.188-2.003,1.062-2.278,1.062-2.278S46.477,26.018,46.008,29.813" fill="#FFFFFF"/></g></svg>