<?xml version="1.0" ?><!DOCTYPE svg  PUBLIC '-//W3C//DTD SVG 1.0//EN'  'http://www.w3.org/TR/2001/REC-SVG-20010904/DTD/svg10.dtd'><svg enable-background="new 0 0 72 72" height="72px" id="Layer_1" version="1.0" viewBox="0 0 72 72" width="72px" xml:space="preserve" xmlns="http://www.w3.org/2000/svg" xmlns:xlink="http://www.w3.org/1999/xlink"><path d="M36.116,11.066c-14.027,0-25.396,11.377-25.396,25.408c0,14.034,11.369,25.411,25.396,25.411  c14.025,0,25.396-11.377,25.396-25.411C61.512,22.443,50.143,11.066,36.116,11.066" fill="#006553"/><path d="M34.692,17.574H27.02c-0.277,0-0.525,0.128-0.69,0.328c-1.226,0.96-2.271,3.975-2.909,8.127l12.167-4.489  v-3.07C35.587,17.979,35.184,17.574,34.692,17.574" fill="#FFFFFF"/><path d="M35.586,25.702l-0.019,0.002C35.575,25.703,35.581,25.702,35.586,25.702v-2.64  c-0.003-0.233,0.01-0.656-0.168-0.584c-0.02,0.008-0.117,0.046-0.136,0.053c-0.029,0.011-0.058,0.021-0.086,0.031  c-0.031,0.013-0.063,0.022-0.095,0.034c-0.033,0.015-0.068,0.025-0.103,0.038c-0.037,0.015-0.075,0.027-0.112,0.041  c-0.041,0.016-0.08,0.03-0.121,0.045c-0.043,0.018-0.086,0.032-0.129,0.047c-0.045,0.019-0.091,0.034-0.137,0.051  c-0.048,0.02-0.096,0.037-0.144,0.055c-0.051,0.019-0.102,0.037-0.151,0.056c-0.054,0.021-0.106,0.039-0.159,0.061  c-0.055,0.019-0.11,0.039-0.166,0.06c-0.056,0.021-0.113,0.042-0.17,0.063c-0.06,0.021-0.118,0.044-0.178,0.064  c-0.062,0.023-0.122,0.045-0.185,0.068c-0.062,0.021-0.125,0.046-0.188,0.067c-0.064,0.024-0.129,0.049-0.194,0.071  c-0.064,0.025-0.131,0.049-0.198,0.073c-0.066,0.023-0.134,0.05-0.202,0.075c-0.069,0.024-0.138,0.051-0.206,0.076  c-0.071,0.025-0.142,0.053-0.212,0.077c-0.07,0.026-0.143,0.054-0.215,0.079c-0.071,0.027-0.144,0.056-0.218,0.08  c-0.073,0.027-0.146,0.056-0.22,0.081c-0.075,0.028-0.149,0.055-0.223,0.083c-0.075,0.028-0.15,0.056-0.226,0.083  c-0.076,0.027-0.151,0.057-0.229,0.083c-0.076,0.029-0.152,0.058-0.229,0.085c-0.077,0.028-0.153,0.058-0.229,0.085  c-0.077,0.029-0.155,0.059-0.231,0.086c-0.078,0.028-0.155,0.059-0.232,0.085c-0.078,0.029-0.155,0.06-0.233,0.086  c-0.077,0.029-0.155,0.059-0.232,0.087c-0.076,0.028-0.154,0.058-0.232,0.086c-0.077,0.027-0.155,0.058-0.232,0.086  c-0.077,0.027-0.153,0.057-0.231,0.086c-0.076,0.026-0.153,0.057-0.23,0.085c-0.076,0.026-0.152,0.056-0.228,0.084  c-0.076,0.026-0.151,0.056-0.228,0.084c-0.075,0.026-0.149,0.055-0.225,0.083c-0.074,0.026-0.148,0.054-0.224,0.082  c-0.072,0.025-0.146,0.054-0.219,0.081c-0.073,0.025-0.145,0.053-0.218,0.079c-0.071,0.025-0.142,0.054-0.214,0.078  c-0.069,0.025-0.139,0.053-0.209,0.077c-0.069,0.026-0.138,0.052-0.207,0.076c-0.067,0.025-0.135,0.05-0.202,0.075  c-0.065,0.022-0.132,0.048-0.197,0.073c-0.063,0.022-0.129,0.047-0.192,0.069c-0.063,0.023-0.125,0.046-0.188,0.069  c-0.06,0.021-0.12,0.045-0.182,0.067c-0.059,0.021-0.117,0.043-0.175,0.063c-0.058,0.022-0.114,0.042-0.171,0.063  c-0.055,0.021-0.109,0.04-0.164,0.06c-0.053,0.021-0.104,0.039-0.157,0.059c-0.05,0.02-0.101,0.036-0.15,0.057  c-0.047,0.017-0.095,0.035-0.143,0.053c-0.045,0.016-0.09,0.032-0.135,0.05c-0.043,0.017-0.086,0.031-0.128,0.046  c-0.04,0.017-0.079,0.03-0.118,0.045c-0.037,0.015-0.073,0.027-0.111,0.041c-0.033,0.014-0.068,0.024-0.101,0.037  c-0.031,0.013-0.062,0.022-0.094,0.033c-0.026,0.012-0.055,0.021-0.082,0.031c-0.024,0.009-0.05,0.018-0.073,0.026  c-0.021,0.009-0.042,0.017-0.063,0.022c-0.018,0.007-0.035,0.014-0.052,0.021c-0.016,0.005-0.029,0.011-0.042,0.016  c-0.011,0.003-0.021,0.007-0.032,0.011c-0.121,0.054-0.168,0.204-0.177,0.229c-0.008,0.022-0.014,0.049-0.018,0.072  c-0.008,0.037-0.015,0.075-0.021,0.113c-0.006,0.031-0.008,0.062-0.012,0.092c-0.01,0.062-0.019,0.125-0.027,0.188  c-0.019,0.132-0.036,0.264-0.053,0.396c-0.019,0.135-0.035,0.269-0.053,0.401c-0.016,0.136-0.032,0.271-0.049,0.408  c-0.016,0.138-0.031,0.274-0.047,0.413c-0.014,0.139-0.029,0.278-0.044,0.419c-0.013,0.141-0.027,0.281-0.041,0.425  c-0.013,0.143-0.026,0.286-0.039,0.429c-0.013,0.146-0.025,0.29-0.036,0.437c-0.012,0.146-0.022,0.293-0.034,0.438  c-0.011,0.148-0.02,0.297-0.03,0.445c-0.01,0.148-0.02,0.299-0.027,0.448c-0.01,0.149-0.018,0.303-0.026,0.453  c-0.008,0.151-0.016,0.306-0.022,0.457c-0.006,0.153-0.013,0.309-0.02,0.463c-0.006,0.153-0.012,0.31-0.017,0.465  c-0.005,0.156-0.009,0.312-0.014,0.469c-0.004,0.158-0.008,0.316-0.011,0.475c-0.003,0.157-0.006,0.316-0.008,0.478  c-0.002,0.159-0.004,0.318-0.005,0.479c-0.001,0.16-0.002,0.321-0.002,0.482c0,9.924,1.98,17.894,4.421,17.894  c0.13,0,7.521,0.008,7.521,0.008c0.491,0,0.896-0.404,0.896-0.896c0,0-0.001-0.631-0.001-1.71h0.001  C35.586,46.747,35.586,32.254,35.586,25.702" fill="#FFFFFF"/><path d="M35.432,57.655c-0.859,0-1.56-0.75-1.56-1.673V33.8c0-2.692,0.685-5.551,2.55-6.091v-0.281h0.659v-0.942  l0.855,0.229c0.481,0.128,1.294,0.205,2.172,0.205c0.798,0,1.544-0.065,2.046-0.181l0.833-0.188v0.878h0.479v0.229  c2.758,0.511,2.793,6.087,2.793,6.145v22.183c0,0.923-0.701,1.673-1.561,1.673L35.432,57.655L35.432,57.655z" fill="#006553"/><path d="M43.051,28.302h-0.266v-0.189h-0.48v-0.706c-0.539,0.122-1.328,0.194-2.195,0.194  c-0.956,0-1.812-0.085-2.346-0.228v0.738h-0.66v0.189h-0.022c-2.186,0-2.526,3.934-2.526,5.5v0.115v19.227v2.84  c0,0.546,0.396,0.989,0.878,0.989H44.7c0.481,0,0.878-0.443,0.878-0.989v-2.84V33.916v-0.115  C45.577,32.234,45.057,28.302,43.051,28.302" fill="#FFFFFF"/><path d="M40.108,26.461c-1.133,0-2.128-0.119-2.6-0.311l-0.446-0.141l0.019-0.481v-2.35  c0-0.244,0.095-0.472,0.267-0.646c0.191-0.254,0.75-0.644,2.688-0.644c1.935,0,2.493,0.389,2.685,0.643  c0.172,0.176,0.27,0.404,0.27,0.647v2.9l-0.494,0.142C41.971,26.371,41.08,26.461,40.108,26.461" fill="#006553"/><path d="M40.108,26.779c0.898,0,1.738-0.082,2.195-0.213v-2.386c0-0.085-0.047-0.156-0.113-0.206  c-0.104-0.226-1.024-0.402-2.156-0.402c-1.133,0-2.052,0.178-2.157,0.402c-0.068,0.05-0.113,0.121-0.113,0.206v2.349l0.005-0.011  C38.084,26.647,38.932,26.779,40.108,26.779" fill="#FFFFFF"/></svg>