<?xml version="1.0" ?><!DOCTYPE svg  PUBLIC '-//W3C//DTD SVG 1.0//EN'  'http://www.w3.org/TR/2001/REC-SVG-20010904/DTD/svg10.dtd'><svg enable-background="new 0 0 72 72" height="72px" id="Layer_1" version="1.0" viewBox="0 0 72 72" width="72px" xml:space="preserve" xmlns="http://www.w3.org/2000/svg" xmlns:xlink="http://www.w3.org/1999/xlink"><g><path d="M36.083,16.066c-14.027,0-25.396,11.377-25.396,25.408c0,14.034,11.368,25.411,25.396,25.411   c14.026,0,25.396-11.377,25.396-25.411C61.479,27.443,50.109,16.066,36.083,16.066" fill="#006553"/><path d="M46.225,46.831c-0.084,0.618-0.43,1.069-1.029,1.284c-0.551,0.197-1.065,0.11-1.514-0.275   c-0.334-0.29-0.476-0.687-0.551-1.104c-0.379-2.068-1.061-4.037-2.003-5.918c-0.235-0.472-0.475-0.939-0.728-1.402   c-0.356-0.652-0.14-1.617,0.485-2.105c0.621-0.482,1.559-0.44,2.166,0.109c0.83,0.752,1.467,1.652,2.015,2.62   c0.897,1.59,1.305,3.301,1.305,5.122C46.324,45.718,46.299,46.278,46.225,46.831 M48.941,42.2   c-0.761-4.354-2.909-7.917-6.252-10.802c-1.128-0.975-2.396-1.734-3.73-2.391c-0.184-0.09-0.281-0.2-0.312-0.409   c-0.062-0.43-0.153-0.854-0.237-1.28c-0.054-0.26-0.21-0.526-0.339-0.539c-0.153-0.015-0.085-0.164-0.085-0.164v-0.146h-0.196   c-0.001-0.021-0.001-0.041-0.001-0.062c-0.007-1.556-0.029-3.109-0.035-4.664c0-0.078-0.012-0.249-0.012-0.267   c0-0.135-0.314-0.259-0.846-0.36c-0.137-0.039-0.273-0.07-0.412-0.087c-1.969-0.227-3.89-0.214-5.86-0.054   c-0.334,0.028-0.993,0.154-0.992,0.167c-0.45,0.096-0.713,0.211-0.713,0.334c0,0.034-0.01,3.354-0.007,4.883   c0,0.039,0,0.074-0.003,0.109h-0.23v0.146c0,0-0.184,0.179-0.228,0.244c-0.189,0.282-0.284,0.538-0.315,0.694   c-0.226,1.098-0.183,1.107-0.859,2.305c-0.01,0.016-0.019,0.028-0.027,0.043c-1.674,2.849-2.832,5.896-3.586,9.098   c-0.441,1.87-0.635,3.774-0.704,5.689c-0.099,2.711-0.005,5.415,0.504,8.089c0.465,2.443,1.062,4.853,2.049,7.148   c0.022,0.053,0.021,0.115,0.046,0.166c0.113,0.227,0.183,0.503,0.359,0.661c0.256,0.229,0.573,0.422,0.896,0.544   c1.441,0.54,2.956,0.77,4.484,0.803c2.275,0.051,4.553-0.008,6.83,0.02c2.097,0.026,4.177-0.109,6.245-0.458   c0.791-0.132,1.582-0.274,2.295-0.663c0.484-0.264,0.906-0.607,1.032-1.172c0.109-0.495,0.181-1.001,0.25-1.505   c0.247-1.805,0.511-3.605,0.723-5.413c0.192-1.634,0.339-3.273,0.479-4.912C49.312,46.058,49.275,44.123,48.941,42.2" fill="#FFFFFF"/><path d="M37.562,21.668c0,0.336-1.881,0.609-4.198,0.609c-2.319,0-4.199-0.273-4.199-0.609   c0-0.337,1.88-0.61,4.199-0.61C35.681,21.058,37.562,21.331,37.562,21.668" fill="#006553"/><path d="M38.225,26.306c-0.014,0.014-0.018,0.031-0.024,0.05c-0.007,0.013-0.017,0.022-0.025,0.033   c-0.019,0.026-0.039,0.052-0.06,0.073c-0.052,0.054-0.106,0.099-0.163,0.143c-0.252,0.188-0.638,0.38-1.106,0.533   c-0.937,0.319-2.211,0.507-3.484,0.51c-1.273-0.003-2.548-0.187-3.486-0.505c-0.468-0.152-0.853-0.344-1.105-0.529   c-0.062-0.041-0.119-0.09-0.172-0.146c-0.017-0.019-0.034-0.037-0.049-0.058c-0.011-0.019-0.027-0.033-0.008-0.086   c0.009-0.001,0.02-0.003,0.028,0c0.013,0.005,0.024,0.017,0.036,0.024c0.027,0.025,0.065,0.032,0.1,0.045   c0.038,0.015,0.076,0.025,0.114,0.035c0.264,0.075,1.23,0.665,4.53,0.665c3.298,0,4.289-0.594,4.552-0.672   c0.062-0.018,0.121-0.038,0.181-0.065c0.045-0.021,0.086-0.057,0.129-0.075C38.217,26.276,38.223,26.273,38.225,26.306" fill="#006553"/></g></svg>