<?xml version="1.0" encoding="iso-8859-1"?>
<!-- Generator: Adobe Illustrator 19.0.0, SVG Export Plug-In . SVG Version: 6.00 Build 0)  -->
<svg xmlns="http://www.w3.org/2000/svg" xmlns:xlink="http://www.w3.org/1999/xlink" version="1.1" id="Layer_1" x="0px" y="0px" viewBox="0 0 512 512" style="enable-background:new 0 0 512 512;" xml:space="preserve" width="512" height="512">
<g>
	<g>
		<polygon style="fill:#FFF5F5;" points="208.048,339.459 271.688,275.82 335.327,212.18 377.754,212.18 452,286.426     367.147,371.279 282.294,456.132 208.048,381.886   "/>
		<polygon style="fill:#EFE2DD;" points="335.327,212.18 377.754,212.18 452,286.426 367.147,371.279 271.688,275.82   "/>
		<polygon style="fill:#537983;" points="59.556,63.688 91.376,31.868 155.015,95.508 123.195,127.327 91.376,159.147     27.736,95.508   "/>
		
			<rect x="84.785" y="34.598" transform="matrix(0.7071 -0.7071 0.7071 0.7071 -24.8609 99.1759)" style="fill:#3E5959;" width="45" height="90"/>
		<path style="fill:#FFF5F5;" d="M90.195,253.778L70.162,137.934l31.82-31.82l31.82-31.82L250.62,94.347    c10.462,1.16,15.61,6.308,21.068,11.767c11.694,11.694,11.694,30.732,0,42.426l1.767,40.659l-44.194,44.194l-41.101,41.101    l-43.752,1.326c-11.694,11.694-30.836,11.591-42.654-0.228C96.907,270.744,91.417,265.255,90.195,253.778z"/>
		<path style="fill:#EFE2DD;" d="M250.62,94.347c10.462,1.16,15.61,6.308,21.068,11.767c11.694,11.694,11.694,30.732,0,42.426    l1.767,40.659l-44.194,44.194L101.982,106.114l31.82-31.82L250.62,94.347z"/>
		<path style="fill:#EFE2DD;" d="M144.409,275.82l63.64-63.64l63.64-63.64c11.716-11.716,30.71-11.716,42.426,0l63.64,63.64    l-84.853,84.853l-84.853,84.853l-63.64-63.64C132.692,306.53,132.692,287.536,144.409,275.82z"/>
		<path style="fill:#CDBFBA;" d="M271.688,148.541c11.716-11.716,30.71-11.716,42.426,0l63.64,63.64l-84.853,84.853l-84.853-84.853    L271.688,148.541z"/>
	</g>
	<g>
		<path style="fill:#9BFCFF;" d="M512,292.932v90l-45.399,47.699h-421L0,382.932v-91.201l20.099,7.5    c18.9,6.901,40.501-9,40.501-29.099h31c0,16.5,13.499,31.199,30,31.199c16.8,0,30-14.7,30-31.199h30    c0,16.5,13.499,31.199,30,31.199c16.8,0,30-14.7,30-31.199h30c0,16.5,13.499,31.199,30,31.199c16.8,0,30-14.7,30-31.199h30    c0,16.5,13.499,31.199,30,31.199c16.8,0,30-14.7,30-31.199h30c0,19.799,22.299,35.7,40.6,29.399L512,292.932z"/>
		<path style="fill:#76E2F8;" d="M512,292.932v90l-45.399,47.699H256V270.132h15.601c0,16.5,13.499,31.199,30,31.199    c16.8,0,30-14.7,30-31.199h30c0,16.5,13.499,31.199,30,31.199c16.8,0,30-14.7,30-31.199h30c0,19.799,22.299,35.7,40.6,29.399    L512,292.932z"/>
		<path style="fill:#76E2F8;" d="M512,382.932v97.2H0v-97.2c8.699,4.499,18.6,7.2,29.399,7.2c26.7,0,42.4-16.5,47.201-19.501    c11.1,12.301,27.299,19.501,45,19.501c17.999,0,34.199-7.2,45-19.501c11.1,12.301,27.299,19.501,45,19.501    c17.699,0,33.6-6.899,44.399-18.9c0.3-0.3,0.3-0.3,0.601-0.601c11.1,12.301,27.299,19.501,45,19.501    c17.999,0,34.199-7.2,45-19.501c11.1,12.301,27.299,19.501,45,19.501c18.6,0,32.1-6.599,45-19.501    c11.1,12.301,27.299,19.501,45,19.501C492.4,390.132,503.301,387.431,512,382.932z"/>
		<path style="fill:#28CBF7;" d="M512,382.932v97.2H256v-108.9c0.3-0.3,0.3-0.3,0.601-0.601c11.1,12.301,27.299,19.501,45,19.501    c17.999,0,34.199-7.2,45-19.501c11.1,12.301,27.299,19.501,45,19.501c18.6,0,32.1-6.599,45-19.501    c11.1,12.301,27.299,19.501,45,19.501C492.4,390.132,503.301,387.431,512,382.932z"/>
	</g>
</g>















</svg>
